<?xml version="1.0" encoding="UTF-8" standalone="no"?>
<!-- Created with Inkscape (http://www.inkscape.org/) -->

<svg
   xmlns:dc="http://purl.org/dc/elements/1.1/"
   xmlns:cc="http://creativecommons.org/ns#"
   xmlns:rdf="http://www.w3.org/1999/02/22-rdf-syntax-ns#"
   xmlns:svg="http://www.w3.org/2000/svg"
   xmlns="http://www.w3.org/2000/svg"
   version="1.1"
   width="902.81854"
   height="497.53629"
   id="svg2"
   xml:space="preserve"><metadata
     id="metadata8"><rdf:RDF><cc:Work
         rdf:about=""><dc:format>image/svg+xml</dc:format><dc:type
           rdf:resource="http://purl.org/dc/dcmitype/StillImage" /><dc:title></dc:title></cc:Work></rdf:RDF></metadata><defs
     id="defs6"><linearGradient
       x1="289.88113"
       y1="276.32715"
       x2="813.35498"
       y2="276.32715"
       id="linearGradient36"
       gradientUnits="userSpaceOnUse"
       gradientTransform="matrix(0.8,0,0,-0.8,55.570848,407.60851)"
       spreadMethod="pad"><stop
         id="stop38"
         style="stop-color:#000000;stop-opacity:1"
         offset="0" /><stop
         id="stop40"
         style="stop-color:#773400;stop-opacity:1"
         offset="1" /></linearGradient><linearGradient
       x1="-49.463566"
       y1="341.87726"
       x2="446.47876"
       y2="341.87726"
       id="linearGradient46"
       gradientUnits="userSpaceOnUse"
       gradientTransform="matrix(0.8,0,0,-0.8,55.570848,407.60851)"
       spreadMethod="pad"><stop
         id="stop48"
         style="stop-color:#0a9712;stop-opacity:1"
         offset="0" /><stop
         id="stop50"
         style="stop-color:#000000;stop-opacity:1"
         offset="1" /></linearGradient><linearGradient
       x1="-49.463566"
       y1="341.87726"
       x2="446.47876"
       y2="341.87726"
       id="linearGradient56"
       gradientUnits="userSpaceOnUse"
       gradientTransform="matrix(0.8,0,0,-0.8,55.570848,407.60851)"
       spreadMethod="pad"><stop
         id="stop58"
         style="stop-color:#0a9712;stop-opacity:1"
         offset="0" /><stop
         id="stop60"
         style="stop-color:#000000;stop-opacity:1"
         offset="1" /></linearGradient><linearGradient
       x1="-49.463566"
       y1="341.87726"
       x2="446.47876"
       y2="341.87726"
       id="linearGradient66"
       gradientUnits="userSpaceOnUse"
       gradientTransform="matrix(0.8,0,0,-0.8,55.570848,407.60851)"
       spreadMethod="pad"><stop
         id="stop68"
         style="stop-color:#0a9712;stop-opacity:1"
         offset="0" /><stop
         id="stop70"
         style="stop-color:#000000;stop-opacity:1"
         offset="1" /></linearGradient><linearGradient
       x1="-49.463566"
       y1="341.87726"
       x2="446.47876"
       y2="341.87726"
       id="linearGradient76"
       gradientUnits="userSpaceOnUse"
       gradientTransform="matrix(0.8,0,0,-0.8,55.570848,407.60851)"
       spreadMethod="pad"><stop
         id="stop78"
         style="stop-color:#0a9712;stop-opacity:1"
         offset="0" /><stop
         id="stop80"
         style="stop-color:#000000;stop-opacity:1"
         offset="1" /></linearGradient></defs><g
     transform="matrix(1.25,0,0,-1.25,0,497.53628)"
     id="g10"><g
       id="g12"><g
         transform="matrix(1,0,0,-1,0,398.02902)"
         id="g14"><path
           d="M 205.211,231.555 264.203,127.309"
           id="path16"
           style="fill:none;stroke:#000000;stroke-width:3.20000005;stroke-linecap:butt;stroke-linejoin:miter;stroke-miterlimit:4;stroke-opacity:1;stroke-dasharray:none" /></g><g
         transform="matrix(1,0,0,-1,0,398.02902)"
         id="g18"><path
           d="m 144.602,90.941 119.601,37.176"
           id="path20"
           style="fill:none;stroke:#000000;stroke-width:3.20000005;stroke-linecap:butt;stroke-linejoin:miter;stroke-miterlimit:4;stroke-opacity:1;stroke-dasharray:none" /></g><g
         transform="matrix(1,0,0,-1,0,398.02902)"
         id="g22"><path
           d="M 256.121,28.719 265.82,126.5"
           id="path24"
           style="fill:none;stroke:#000000;stroke-width:3.20000005;stroke-linecap:butt;stroke-linejoin:miter;stroke-miterlimit:4;stroke-opacity:1;stroke-dasharray:none" /></g><g
         transform="matrix(1,0,0,-1,0,398.02902)"
         id="g26"><path
           d="M 404.816,229.941 264.203,124.883"
           id="path28"
           style="fill:none;stroke:#000000;stroke-width:3.20000005;stroke-linecap:butt;stroke-linejoin:miter;stroke-miterlimit:4;stroke-opacity:1;stroke-dasharray:none" /></g><g
         transform="matrix(1,0,0,-1,0,398.02902)"
         id="g30"><path
           d="m 344.379,121.652 -75.328,4.039"
           id="path32"
           style="fill:none;stroke:#000000;stroke-width:3.20000005;stroke-linecap:butt;stroke-linejoin:miter;stroke-miterlimit:4;stroke-opacity:1;stroke-dasharray:none" /></g><g
         id="g34"><path
           d="m 452.555,336.271 c 0,0 108.41,63.047 210.738,-30.277 C 765.625,212.67 653.02,114.537 653.02,114.537 654.711,103.416 637.664,59.634 641.957,42.021 655.703,20.705 674.23,28.318 668.699,16.42 c -31.328,3.519 -43.98,4.871 -69.758,-0.418 15.637,13.105 -34.816,3.996 -34.816,3.996 0,0 14.348,17.281 46.063,13.351 19.691,9.633 18.414,51.305 13.445,62.137 -4.762,-1.297 -12.574,-2.992 -18.102,-2.098 -15.91,-15.75 -38.601,-55.695 -37.965,-75.187 -4.308,4.926 -11.828,8.164 -19.558,2.828 -14.121,4.551 -72.746,-2.984 -72.746,-2.984 0,0 24.351,16.574 71.246,21.144 17.949,16.27 28.129,30.442 34.879,61.711 -26.43,3.934 -55.274,85.34 -112.903,116.535 -67.996,36.809 -57.707,15.887 -103.046,27.008 -38.352,1.668 -79.047,-93.559 -77.942,-90.855 0,0 0.375,32.441 38.641,94.445 -12.293,147.508 126.418,88.238 126.418,88.238 z"
           id="path42"
           style="fill:url(#linearGradient36);fill-opacity:1;fill-rule:nonzero;stroke:none" /></g><g
         id="g44"><path
           d="m 205.68,88.111 c 0.886,-2.519 0.73,-4.973 -0.465,-7.359 -1.195,-2.391 -3.113,-4.047 -5.754,-4.977 -3.133,-1.101 -6.023,-0.879 -8.676,0.676 -2.648,1.551 -7.824,5.422 -15.527,11.617 -8.055,6.414 -15.117,11.484 -21.192,15.211 -24.675,15.199 -47.859,23.914 -69.558,26.148 -5.52,-7.464 -10.016,-13.222 -13.488,-17.273 7.23,-27.41 11.277,-47.242 12.14,-59.5 0.887,-13.699 -1.773,-21.641 -7.972,-23.824 -2.274,-0.797 -4.415,-0.653 -6.418,0.433 -2.004,1.09 -3.418,2.801 -4.239,5.137 -0.629,1.777 -1.074,4.418 -1.336,7.914 -0.3,5.555 -0.496,8.762 -0.593,9.625 -2.977,25.32 -9.391,51.981 -19.247,79.985 -4.949,14.062 -10.582,27.972 -16.906,41.722 -6.324,13.754 -9.465,20.567 -9.422,20.446 -2.441,6.937 -0.531,11.511 5.735,13.714 6.445,2.27 12.613,-2.601 18.496,-14.609 2.64,-5.352 10.25,-25.105 22.82,-59.262 22.199,29.692 38.285,58.407 48.262,86.141 3.644,10.047 5.523,15.195 5.644,15.445 1.93,4.129 4.399,6.723 7.407,7.781 5.16,1.817 8.644,0.145 10.461,-5.015 4.496,-12.774 -8.262,-43.004 -38.274,-90.699 19.746,-3.746 38.578,-10.477 56.488,-20.184 14.895,-8.012 27.387,-16.141 37.469,-24.395 8.305,-6.742 13.024,-11.707 14.145,-14.898 z"
           id="path52"
           style="fill:url(#linearGradient46);fill-opacity:1;fill-rule:nonzero;stroke:none" /></g><g
         id="g54"><path
           d="m 215.246,133.228 c 0,-39.258 -1.402,-68.261 -4.199,-87.011 -1.109,-7.551 -2.344,-12.629 -3.711,-15.235 -1.758,-3.449 -4.59,-5.176 -8.496,-5.176 -2.606,0 -4.82,0.864 -6.641,2.59 -1.824,1.723 -2.734,3.793 -2.734,6.199 0,-0.324 0.519,1.922 1.562,6.739 1.235,5.468 2.246,11.687 3.028,18.652 1.039,9.898 1.562,20.965 1.562,33.203 0,5.34 -0.066,10.973 -0.195,16.895 -0.133,5.925 -0.195,9.148 -0.195,9.668 0,8.789 0.746,14.91 2.246,18.359 1.562,3.777 4.492,5.664 8.789,5.664 5.988,0 8.984,-3.516 8.984,-10.547 z"
           id="path62"
           style="fill:url(#linearGradient56);fill-opacity:1;fill-rule:nonzero;stroke:none" /></g><g
         id="g64"><path
           d="m 372.387,87.384 c 0,-20.246 -3.614,-35.937 -10.84,-47.07 -6.965,-10.742 -16.602,-16.113 -28.906,-16.113 -15.102,0 -25.911,7.746 -32.422,23.242 -7.746,-11.914 -16.274,-17.871 -25.586,-17.871 -12.434,0 -22.852,6.77 -31.25,20.312 -8.918,14.387 -13.379,33.368 -13.379,56.934 0,32.422 4.785,48.633 14.355,48.633 2.539,0 4.786,-0.961 6.739,-2.879 1.953,-1.922 2.929,-4.184 2.929,-6.789 0,0.457 -0.699,-3.777 -2.097,-12.695 -1.403,-8.918 -2.102,-18.231 -2.102,-27.93 0,-16.016 2.606,-29.102 7.813,-39.258 4.82,-9.375 10.613,-14.062 17.382,-14.062 4.754,0 8.84,2.687 12.258,8.058 3.418,5.371 5.125,12.352 5.125,20.946 0,4.621 -0.437,10.937 -1.316,18.945 -0.879,8.008 -1.32,13.672 -1.32,16.992 0,8.789 3.613,13.184 10.839,13.184 7.36,0 11.036,-4.719 11.036,-14.161 0,-1.433 -0.047,-3.906 -0.145,-7.421 -0.098,-3.516 -0.148,-6.25 -0.148,-8.204 0,-18.488 0.425,-30.175 1.269,-35.058 2.539,-14.715 8.789,-22.07 18.75,-22.07 6.512,0 11.703,3.371 15.578,10.109 3.871,6.738 5.809,16.226 5.809,28.465 0,13.867 -1.465,27.75 -4.395,41.652 -2.929,13.899 -4.394,21.141 -4.394,21.727 0,5.207 2.734,7.812 8.203,7.812 6.187,0 11.07,-5.566 14.648,-16.699 3.711,-11.59 5.567,-27.832 5.567,-48.731 z"
           id="path72"
           style="fill:url(#linearGradient66);fill-opacity:1;fill-rule:nonzero;stroke:none" /></g><g
         id="g74"><path
           d="m 412.754,133.228 c 0,-39.258 -1.399,-68.261 -4.199,-87.011 -1.106,-7.551 -2.344,-12.629 -3.711,-15.235 -1.758,-3.449 -4.59,-5.176 -8.496,-5.176 -2.606,0 -4.817,0.864 -6.641,2.59 -1.824,1.723 -2.734,3.793 -2.734,6.199 0,-0.324 0.519,1.922 1.562,6.739 1.238,5.468 2.246,11.687 3.028,18.652 1.042,9.898 1.562,20.965 1.562,33.203 0,5.34 -0.066,10.973 -0.195,16.895 -0.129,5.925 -0.196,9.148 -0.196,9.668 0,8.789 0.75,14.91 2.246,18.359 1.563,3.777 4.493,5.664 8.79,5.664 5.988,0 8.984,-3.516 8.984,-10.547 z"
           id="path82"
           style="fill:url(#linearGradient76);fill-opacity:1;fill-rule:nonzero;stroke:none" /></g><path
         d="m 278.07,273.306 c 0,-9.246 -4.523,-13.867 -13.574,-13.867 -3.644,0 -6.723,1.27 -9.23,3.809 -2.504,2.539 -3.758,5.597 -3.758,9.179 0,3.907 1.367,7.227 4.101,9.961 2.735,2.735 6.086,4.102 10.059,4.102 3.711,0 6.707,-1.207 8.984,-3.613 2.278,-2.41 3.418,-5.602 3.418,-9.571 z"
         id="path84"
         style="fill:#000000;fill-opacity:1;fill-rule:nonzero;stroke:none" /><path
         d="m 157.883,309.853 c 0,-9.246 -4.528,-13.867 -13.574,-13.867 -3.649,0 -6.723,1.27 -9.231,3.809 -2.504,2.539 -3.758,5.597 -3.758,9.179 0,3.907 1.368,7.227 4.102,9.961 2.734,2.735 6.086,4.102 10.058,4.102 3.711,0 6.704,-1.207 8.985,-3.613 2.277,-2.411 3.418,-5.602 3.418,-9.571 z"
         id="path86"
         style="fill:#000000;fill-opacity:1;fill-rule:nonzero;stroke:none" /><path
         d="m 270.211,368.845 c 0,-9.246 -4.523,-13.867 -13.574,-13.867 -3.645,0 -6.723,1.27 -9.231,3.809 -2.504,2.539 -3.758,5.597 -3.758,9.18 0,3.906 1.368,7.226 4.102,9.96 2.734,2.735 6.086,4.102 10.059,4.102 3.711,0 6.707,-1.203 8.984,-3.613 2.277,-2.41 3.418,-5.598 3.418,-9.571 z"
         id="path88"
         style="fill:#000000;fill-opacity:1;fill-rule:nonzero;stroke:none" /><path
         d="m 384.965,283.185 c 0,-9.246 -4.527,-13.867 -13.574,-13.867 -3.649,0 -6.723,1.27 -9.231,3.809 -2.504,2.539 -3.758,5.597 -3.758,9.179 0,3.907 1.368,7.227 4.102,9.961 2.734,2.735 6.086,4.102 10.059,4.102 3.71,0 6.703,-1.207 8.984,-3.613 2.277,-2.411 3.418,-5.602 3.418,-9.571 z"
         id="path90"
         style="fill:#ffffff;fill-opacity:1;fill-rule:nonzero;stroke:none" /><path
         d="m 219.352,168.431 c 0,-9.246 -4.524,-13.867 -13.575,-13.867 -3.644,0 -6.722,1.27 -9.226,3.809 -2.508,2.539 -3.762,5.597 -3.762,9.179 0,3.907 1.367,7.227 4.102,9.961 2.734,2.735 6.089,4.102 10.058,4.102 3.711,0 6.707,-1.203 8.985,-3.613 2.281,-2.41 3.418,-5.598 3.418,-9.571 z"
         id="path92"
         style="fill:#000000;fill-opacity:1;fill-rule:nonzero;stroke:none" /><path
         d="m 417.309,165.197 c 0,-9.242 -4.524,-13.867 -13.575,-13.867 -3.644,0 -6.722,1.269 -9.226,3.808 -2.508,2.539 -3.762,5.602 -3.762,9.18 0,3.906 1.367,7.227 4.102,9.961 2.734,2.734 6.09,4.102 10.058,4.102 3.711,0 6.707,-1.204 8.985,-3.614 2.281,-2.406 3.418,-5.597 3.418,-9.57 z"
         id="path94"
         style="fill:#000000;fill-opacity:1;fill-rule:nonzero;stroke:none" /></g></g></svg>