<?xml version="1.0" encoding="utf-8" standalone="no"?>
<!DOCTYPE svg PUBLIC "-//W3C//DTD SVG 1.1//EN"
  "http://www.w3.org/Graphics/SVG/1.1/DTD/svg11.dtd">
<!-- Created with matplotlib (http://matplotlib.org/) -->
<svg height="320pt" version="1.1" viewBox="0 0 425 320" width="425pt" xmlns="http://www.w3.org/2000/svg" xmlns:xlink="http://www.w3.org/1999/xlink">
 <defs>
  <style type="text/css">
*{stroke-linecap:butt;stroke-linejoin:round;}
  </style>
 </defs>
 <g id="figure_1">
  <g id="patch_1">
   <path d="
M0 320.4
L425.7 320.4
L425.7 0
L0 0
z
" style="fill:#ffffff;"/>
  </g>
  <g id="axes_1">
   <g id="LineCollection_1">
    <defs>
     <path d="
M189.874 -64.0501
L209.116 -53.6289" id="C0_0_f37436d445"/>
     <path d="
M189.874 -64.0501
L234.764 -104.647" id="C0_1_cefad319a7"/>
     <path d="
M189.874 -64.0501
L237.5 -45.7714" id="C0_2_5a40f98742"/>
     <path d="
M189.874 -64.0501
L154.232 -52.239" id="C0_3_a3b9eff361"/>
     <path d="
M309.221 -244.038
L330.727 -206.05" id="C0_4_f6ffe0bc1d"/>
     <path d="
M309.221 -244.038
L301.525 -214.616" id="C0_5_c51b86a8d0"/>
     <path d="
M309.221 -244.038
L281.653 -230.246" id="C0_6_f0f5b3192b"/>
     <path d="
M277.205 -174.632
L234.764 -104.647" id="C0_7_620205ecd1"/>
     <path d="
M277.205 -174.632
L301.525 -214.616" id="C0_8_5c71663d00"/>
     <path d="
M277.205 -174.632
L281.653 -230.246" id="C0_9_05b39b20e1"/>
     <path d="
M277.205 -174.632
L330.727 -206.05" id="C0_a_e65dad2a43"/>
     <path d="
M102.175 -240.724
L80.1418 -217.615" id="C0_b_be4eb6a911"/>
     <path d="
M102.175 -240.724
L124.183 -254.864" id="C0_c_4e764fbb8d"/>
     <path d="
M64.4064 -192.337
L80.1418 -217.615" id="C0_d_5a35e1396f"/>
     <path d="
M64.4064 -192.337
L60.8143 -166.527" id="C0_e_1218c9a38e"/>
     <path d="
M81.6346 -105.203
L67.1216 -132.679" id="C0_f_02d55df38d"/>
     <path d="
M209.116 -53.6289
L234.764 -104.647" id="C0_10_12215fa9fd"/>
     <path d="
M209.116 -53.6289
L237.5 -45.7714" id="C0_11_cd4101ea2b"/>
     <path d="
M209.116 -53.6289
L154.232 -52.239" id="C0_12_b4c9a66e99"/>
     <path d="
M80.1418 -217.615
L60.8143 -166.527" id="C0_13_cd6951ef60"/>
     <path d="
M80.1418 -217.615
L124.183 -254.864" id="C0_14_6129d8641b"/>
     <path d="
M301.525 -214.616
L281.653 -230.246" id="C0_15_7c592f84e6"/>
     <path d="
M301.525 -214.616
L330.727 -206.05" id="C0_16_7d5bdc8969"/>
     <path d="
M357.823 -188.99
L362.176 -165.031" id="C0_17_a1f82f34f5"/>
     <path d="
M357.823 -188.99
L330.727 -206.05" id="C0_18_924c9a8aae"/>
     <path d="
M316.021 -78.4536
L337.341 -97.8674" id="C0_19_6ce051c9d0"/>
     <path d="
M362.176 -165.031
L330.727 -206.05" id="C0_1a_630dbde3f4"/>
     <path d="
M330.727 -206.05
L281.653 -230.246" id="C0_1b_9ac991c70a"/>
     <path d="
M60.8143 -166.527
L67.1216 -132.679" id="C0_1c_c98823a927"/>
    </defs>
    <g clip-path="url(#pc915e621bb)">
     <use style="fill:none;stroke:#000000;stroke-width:2.5;" x="0.0" xlink:href="#C0_0_f37436d445" y="320.4"/>
    </g>
    <g clip-path="url(#pc915e621bb)">
     <use style="fill:none;stroke:#000000;stroke-width:2.5;" x="0.0" xlink:href="#C0_1_cefad319a7" y="320.4"/>
    </g>
    <g clip-path="url(#pc915e621bb)">
     <use style="fill:none;stroke:#000000;stroke-width:2.5;" x="0.0" xlink:href="#C0_2_5a40f98742" y="320.4"/>
    </g>
    <g clip-path="url(#pc915e621bb)">
     <use style="fill:none;stroke:#000000;stroke-width:2.5;" x="0.0" xlink:href="#C0_3_a3b9eff361" y="320.4"/>
    </g>
    <g clip-path="url(#pc915e621bb)">
     <use style="fill:none;stroke:#000000;stroke-width:2.5;" x="0.0" xlink:href="#C0_4_f6ffe0bc1d" y="320.4"/>
    </g>
    <g clip-path="url(#pc915e621bb)">
     <use style="fill:none;stroke:#000000;stroke-width:2.5;" x="0.0" xlink:href="#C0_5_c51b86a8d0" y="320.4"/>
    </g>
    <g clip-path="url(#pc915e621bb)">
     <use style="fill:none;stroke:#000000;stroke-width:2.5;" x="0.0" xlink:href="#C0_6_f0f5b3192b" y="320.4"/>
    </g>
    <g clip-path="url(#pc915e621bb)">
     <use style="fill:none;stroke:#000000;stroke-width:2.5;" x="0.0" xlink:href="#C0_7_620205ecd1" y="320.4"/>
    </g>
    <g clip-path="url(#pc915e621bb)">
     <use style="fill:none;stroke:#000000;stroke-width:2.5;" x="0.0" xlink:href="#C0_8_5c71663d00" y="320.4"/>
    </g>
    <g clip-path="url(#pc915e621bb)">
     <use style="fill:none;stroke:#000000;stroke-width:2.5;" x="0.0" xlink:href="#C0_9_05b39b20e1" y="320.4"/>
    </g>
    <g clip-path="url(#pc915e621bb)">
     <use style="fill:none;stroke:#000000;stroke-width:2.5;" x="0.0" xlink:href="#C0_a_e65dad2a43" y="320.4"/>
    </g>
    <g clip-path="url(#pc915e621bb)">
     <use style="fill:none;stroke:#000000;stroke-width:2.5;" x="0.0" xlink:href="#C0_b_be4eb6a911" y="320.4"/>
    </g>
    <g clip-path="url(#pc915e621bb)">
     <use style="fill:none;stroke:#000000;stroke-width:2.5;" x="0.0" xlink:href="#C0_c_4e764fbb8d" y="320.4"/>
    </g>
    <g clip-path="url(#pc915e621bb)">
     <use style="fill:none;stroke:#000000;stroke-width:2.5;" x="0.0" xlink:href="#C0_d_5a35e1396f" y="320.4"/>
    </g>
    <g clip-path="url(#pc915e621bb)">
     <use style="fill:none;stroke:#000000;stroke-width:2.5;" x="0.0" xlink:href="#C0_e_1218c9a38e" y="320.4"/>
    </g>
    <g clip-path="url(#pc915e621bb)">
     <use style="fill:none;stroke:#000000;stroke-width:5.0;" x="0.0" xlink:href="#C0_f_02d55df38d" y="320.4"/>
    </g>
    <g clip-path="url(#pc915e621bb)">
     <use style="fill:none;stroke:#000000;stroke-width:2.5;" x="0.0" xlink:href="#C0_10_12215fa9fd" y="320.4"/>
    </g>
    <g clip-path="url(#pc915e621bb)">
     <use style="fill:none;stroke:#000000;stroke-width:2.5;" x="0.0" xlink:href="#C0_11_cd4101ea2b" y="320.4"/>
    </g>
    <g clip-path="url(#pc915e621bb)">
     <use style="fill:none;stroke:#000000;stroke-width:2.5;" x="0.0" xlink:href="#C0_12_b4c9a66e99" y="320.4"/>
    </g>
    <g clip-path="url(#pc915e621bb)">
     <use style="fill:none;stroke:#000000;stroke-width:2.5;" x="0.0" xlink:href="#C0_13_cd6951ef60" y="320.4"/>
    </g>
    <g clip-path="url(#pc915e621bb)">
     <use style="fill:none;stroke:#000000;stroke-width:2.5;" x="0.0" xlink:href="#C0_14_6129d8641b" y="320.4"/>
    </g>
    <g clip-path="url(#pc915e621bb)">
     <use style="fill:none;stroke:#000000;stroke-width:2.5;" x="0.0" xlink:href="#C0_15_7c592f84e6" y="320.4"/>
    </g>
    <g clip-path="url(#pc915e621bb)">
     <use style="fill:none;stroke:#000000;stroke-width:2.5;" x="0.0" xlink:href="#C0_16_7d5bdc8969" y="320.4"/>
    </g>
    <g clip-path="url(#pc915e621bb)">
     <use style="fill:none;stroke:#000000;stroke-width:2.5;" x="0.0" xlink:href="#C0_17_a1f82f34f5" y="320.4"/>
    </g>
    <g clip-path="url(#pc915e621bb)">
     <use style="fill:none;stroke:#000000;stroke-width:2.5;" x="0.0" xlink:href="#C0_18_924c9a8aae" y="320.4"/>
    </g>
    <g clip-path="url(#pc915e621bb)">
     <use style="fill:none;stroke:#000000;stroke-width:5.0;" x="0.0" xlink:href="#C0_19_6ce051c9d0" y="320.4"/>
    </g>
    <g clip-path="url(#pc915e621bb)">
     <use style="fill:none;stroke:#000000;stroke-width:2.5;" x="0.0" xlink:href="#C0_1a_630dbde3f4" y="320.4"/>
    </g>
    <g clip-path="url(#pc915e621bb)">
     <use style="fill:none;stroke:#000000;stroke-width:2.5;" x="0.0" xlink:href="#C0_1b_9ac991c70a" y="320.4"/>
    </g>
    <g clip-path="url(#pc915e621bb)">
     <use style="fill:none;stroke:#000000;stroke-width:5.0;" x="0.0" xlink:href="#C0_1c_c98823a927" y="320.4"/>
    </g>
   </g>
   <g id="PathCollection_1">
    <defs>
     <path d="
M0 9.92845
C2.63305 9.92845 5.15862 8.88232 7.02047 7.02047
C8.88232 5.15862 9.92845 2.63305 9.92845 0
C9.92845 -2.63305 8.88232 -5.15862 7.02047 -7.02047
C5.15862 -8.88232 2.63305 -9.92845 0 -9.92845
C-2.63305 -9.92845 -5.15862 -8.88232 -7.02047 -7.02047
C-8.88232 -5.15862 -9.92845 -2.63305 -9.92845 0
C-9.92845 2.63305 -8.88232 5.15862 -7.02047 7.02047
C-5.15862 8.88232 -2.63305 9.92845 0 9.92845
z
" id="C1_0_2d572cb2f1"/>
     <path d="
M0 6.15887
C1.63335 6.15887 3.20003 5.50994 4.35498 4.35498
C5.50994 3.20003 6.15887 1.63335 6.15887 0
C6.15887 -1.63335 5.50994 -3.20003 4.35498 -4.35498
C3.20003 -5.50994 1.63335 -6.15887 0 -6.15887
C-1.63335 -6.15887 -3.20003 -5.50994 -4.35498 -4.35498
C-5.50994 -3.20003 -6.15887 -1.63335 -6.15887 0
C-6.15887 1.63335 -5.50994 3.20003 -4.35498 4.35498
C-3.20003 5.50994 -1.63335 6.15887 0 6.15887
z
" id="C1_1_1be3fcb2b5"/>
     <path d="
M0 6.80101
C1.80365 6.80101 3.53367 6.08441 4.80904 4.80904
C6.08441 3.53367 6.80101 1.80365 6.80101 0
C6.80101 -1.80365 6.08441 -3.53367 4.80904 -4.80904
C3.53367 -6.08441 1.80365 -6.80101 0 -6.80101
C-1.80365 -6.80101 -3.53367 -6.08441 -4.80904 -4.80904
C-6.08441 -3.53367 -6.80101 -1.80365 -6.80101 0
C-6.80101 1.80365 -6.08441 3.53367 -4.80904 4.80904
C-3.53367 6.08441 -1.80365 6.80101 0 6.80101
z
" id="C1_2_07fdb1101f"/>
     <path d="
M0 6.57001
C1.74239 6.57001 3.41364 5.87775 4.6457 4.6457
C5.87775 3.41364 6.57001 1.74239 6.57001 0
C6.57001 -1.74239 5.87775 -3.41364 4.6457 -4.6457
C3.41364 -5.87775 1.74239 -6.57001 0 -6.57001
C-1.74239 -6.57001 -3.41364 -5.87775 -4.6457 -4.6457
C-5.87775 -3.41364 -6.57001 -1.74239 -6.57001 0
C-6.57001 1.74239 -5.87775 3.41364 -4.6457 4.6457
C-3.41364 5.87775 -1.74239 6.57001 0 6.57001
z
" id="C1_3_1f97d3b921"/>
     <path d="
M0 8.76194
C2.32369 8.76194 4.55253 7.83873 6.19563 6.19563
C7.83873 4.55253 8.76194 2.32369 8.76194 0
C8.76194 -2.32369 7.83873 -4.55253 6.19563 -6.19563
C4.55253 -7.83873 2.32369 -8.76194 0 -8.76194
C-2.32369 -8.76194 -4.55253 -7.83873 -6.19563 -6.19563
C-7.83873 -4.55253 -8.76194 -2.32369 -8.76194 0
C-8.76194 2.32369 -7.83873 4.55253 -6.19563 6.19563
C-4.55253 7.83873 -2.32369 8.76194 0 8.76194
z
" id="C1_4_1fee068024"/>
     <path d="
M0 8.65698
C2.29586 8.65698 4.49799 7.74483 6.12141 6.12141
C7.74483 4.49799 8.65698 2.29586 8.65698 0
C8.65698 -2.29586 7.74483 -4.49799 6.12141 -6.12141
C4.49799 -7.74483 2.29586 -8.65698 0 -8.65698
C-2.29586 -8.65698 -4.49799 -7.74483 -6.12141 -6.12141
C-7.74483 -4.49799 -8.65698 -2.29586 -8.65698 0
C-8.65698 2.29586 -7.74483 4.49799 -6.12141 6.12141
C-4.49799 7.74483 -2.29586 8.65698 0 8.65698
z
" id="C1_5_845c1ea425"/>
     <path d="
M0 11.2787
C2.99114 11.2787 5.86018 10.0903 7.97523 7.97523
C10.0903 5.86018 11.2787 2.99114 11.2787 0
C11.2787 -2.99114 10.0903 -5.86018 7.97523 -7.97523
C5.86018 -10.0903 2.99114 -11.2787 0 -11.2787
C-2.99114 -11.2787 -5.86018 -10.0903 -7.97523 -7.97523
C-10.0903 -5.86018 -11.2787 -2.99114 -11.2787 0
C-11.2787 2.99114 -10.0903 5.86018 -7.97523 7.97523
C-5.86018 10.0903 -2.99114 11.2787 0 11.2787
z
" id="C1_6_3ef7e90864"/>
     <path d="
M0 10.0322
C2.66056 10.0322 5.21251 8.97511 7.09381 7.09381
C8.97511 5.21251 10.0322 2.66056 10.0322 0
C10.0322 -2.66056 8.97511 -5.21251 7.09381 -7.09381
C5.21251 -8.97511 2.66056 -10.0322 0 -10.0322
C-2.66056 -10.0322 -5.21251 -8.97511 -7.09381 -7.09381
C-8.97511 -5.21251 -10.0322 -2.66056 -10.0322 0
C-10.0322 2.66056 -8.97511 5.21251 -7.09381 7.09381
C-5.21251 8.97511 -2.66056 10.0322 0 10.0322
z
" id="C1_7_8b6dacb437"/>
     <path d="
M0 7.1321
C1.89146 7.1321 3.7057 6.38062 5.04316 5.04316
C6.38062 3.7057 7.1321 1.89146 7.1321 0
C7.1321 -1.89146 6.38062 -3.7057 5.04316 -5.04316
C3.7057 -6.38062 1.89146 -7.1321 0 -7.1321
C-1.89146 -7.1321 -3.7057 -6.38062 -5.04316 -5.04316
C-6.38062 -3.7057 -7.1321 -1.89146 -7.1321 0
C-7.1321 1.89146 -6.38062 3.7057 -5.04316 5.04316
C-3.7057 6.38062 -1.89146 7.1321 0 7.1321
z
" id="C1_8_b9fb80c31f"/>
     <path d="
M0 7.55254
C2.00296 7.55254 3.92415 6.75676 5.34045 5.34045
C6.75676 3.92415 7.55254 2.00296 7.55254 0
C7.55254 -2.00296 6.75676 -3.92415 5.34045 -5.34045
C3.92415 -6.75676 2.00296 -7.55254 0 -7.55254
C-2.00296 -7.55254 -3.92415 -6.75676 -5.34045 -5.34045
C-6.75676 -3.92415 -7.55254 -2.00296 -7.55254 0
C-7.55254 2.00296 -6.75676 3.92415 -5.34045 5.34045
C-3.92415 6.75676 -2.00296 7.55254 0 7.55254
z
" id="C1_9_16053c7d95"/>
     <path d="
M0 6.41251
C1.70062 6.41251 3.33181 5.73685 4.53433 4.53433
C5.73685 3.33181 6.41251 1.70062 6.41251 0
C6.41251 -1.70062 5.73685 -3.33181 4.53433 -4.53433
C3.33181 -5.73685 1.70062 -6.41251 0 -6.41251
C-1.70062 -6.41251 -3.33181 -5.73685 -4.53433 -4.53433
C-5.73685 -3.33181 -6.41251 -1.70062 -6.41251 0
C-6.41251 1.70062 -5.73685 3.33181 -4.53433 4.53433
C-3.33181 5.73685 -1.70062 6.41251 0 6.41251
z
" id="C1_a_82f3a8e0ac"/>
     <path d="
M0 9.04873
C2.39975 9.04873 4.70154 8.0953 6.39842 6.39842
C8.0953 4.70154 9.04873 2.39975 9.04873 0
C9.04873 -2.39975 8.0953 -4.70154 6.39842 -6.39842
C4.70154 -8.0953 2.39975 -9.04873 0 -9.04873
C-2.39975 -9.04873 -4.70154 -8.0953 -6.39842 -6.39842
C-8.0953 -4.70154 -9.04873 -2.39975 -9.04873 0
C-9.04873 2.39975 -8.0953 4.70154 -6.39842 6.39842
C-4.70154 8.0953 -2.39975 9.04873 0 9.04873
z
" id="C1_b_a0a5a03103"/>
     <path d="
M0 8.44885
C2.24066 8.44885 4.38985 7.55862 5.97424 5.97424
C7.55862 4.38985 8.44885 2.24066 8.44885 0
C8.44885 -2.24066 7.55862 -4.38985 5.97424 -5.97424
C4.38985 -7.55862 2.24066 -8.44885 0 -8.44885
C-2.24066 -8.44885 -4.38985 -7.55862 -5.97424 -5.97424
C-7.55862 -4.38985 -8.44885 -2.24066 -8.44885 0
C-8.44885 2.24066 -7.55862 4.38985 -5.97424 5.97424
C-4.38985 7.55862 -2.24066 8.44885 0 8.44885
z
" id="C1_c_36051c11bd"/>
     <path d="
M0 9.88041
C2.62031 9.88041 5.13366 8.83935 6.9865 6.9865
C8.83935 5.13366 9.88041 2.62031 9.88041 0
C9.88041 -2.62031 8.83935 -5.13366 6.9865 -6.9865
C5.13366 -8.83935 2.62031 -9.88041 0 -9.88041
C-2.62031 -9.88041 -5.13366 -8.83935 -6.9865 -6.9865
C-8.83935 -5.13366 -9.88041 -2.62031 -9.88041 0
C-9.88041 2.62031 -8.83935 5.13366 -6.9865 6.9865
C-5.13366 8.83935 -2.62031 9.88041 0 9.88041
z
" id="C1_d_2df9d72b74"/>
     <path d="
M0 6.35467
C1.68528 6.35467 3.30176 5.6851 4.49343 4.49343
C5.6851 3.30176 6.35467 1.68528 6.35467 0
C6.35467 -1.68528 5.6851 -3.30176 4.49343 -4.49343
C3.30176 -5.6851 1.68528 -6.35467 0 -6.35467
C-1.68528 -6.35467 -3.30176 -5.6851 -4.49343 -4.49343
C-5.6851 -3.30176 -6.35467 -1.68528 -6.35467 0
C-6.35467 1.68528 -5.6851 3.30176 -4.49343 4.49343
C-3.30176 5.6851 -1.68528 6.35467 0 6.35467
z
" id="C1_e_9db1600ceb"/>
     <path d="
M0 7.11488
C1.88689 7.11488 3.69675 6.36521 5.03098 5.03098
C6.36521 3.69675 7.11488 1.88689 7.11488 0
C7.11488 -1.88689 6.36521 -3.69675 5.03098 -5.03098
C3.69675 -6.36521 1.88689 -7.11488 0 -7.11488
C-1.88689 -7.11488 -3.69675 -6.36521 -5.03098 -5.03098
C-6.36521 -3.69675 -7.11488 -1.88689 -7.11488 0
C-7.11488 1.88689 -6.36521 3.69675 -5.03098 5.03098
C-3.69675 6.36521 -1.88689 7.11488 0 7.11488
z
" id="C1_f_208c9d9273"/>
     <path d="
M0 6.24688
C1.65669 6.24688 3.24575 5.58866 4.41721 4.41721
C5.58866 3.24575 6.24688 1.65669 6.24688 0
C6.24688 -1.65669 5.58866 -3.24575 4.41721 -4.41721
C3.24575 -5.58866 1.65669 -6.24688 0 -6.24688
C-1.65669 -6.24688 -3.24575 -5.58866 -4.41721 -4.41721
C-5.58866 -3.24575 -6.24688 -1.65669 -6.24688 0
C-6.24688 1.65669 -5.58866 3.24575 -4.41721 4.41721
C-3.24575 5.58866 -1.65669 6.24688 0 6.24688
z
" id="C1_10_e58f176cd4"/>
     <path d="
M0 8.54592
C2.26641 8.54592 4.44029 7.64547 6.04288 6.04288
C7.64547 4.44029 8.54592 2.26641 8.54592 0
C8.54592 -2.26641 7.64547 -4.44029 6.04288 -6.04288
C4.44029 -7.64547 2.26641 -8.54592 0 -8.54592
C-2.26641 -8.54592 -4.44029 -7.64547 -6.04288 -6.04288
C-7.64547 -4.44029 -8.54592 -2.26641 -8.54592 0
C-8.54592 2.26641 -7.64547 4.44029 -6.04288 6.04288
C-4.44029 7.64547 -2.26641 8.54592 0 8.54592
z
" id="C1_11_b2d9855b07"/>
     <path d="
M0 10.7574
C2.8529 10.7574 5.58934 9.62396 7.60665 7.60665
C9.62396 5.58934 10.7574 2.8529 10.7574 0
C10.7574 -2.8529 9.62396 -5.58934 7.60665 -7.60665
C5.58934 -9.62396 2.8529 -10.7574 0 -10.7574
C-2.8529 -10.7574 -5.58934 -9.62396 -7.60665 -7.60665
C-9.62396 -5.58934 -10.7574 -2.8529 -10.7574 0
C-10.7574 2.8529 -9.62396 5.58934 -7.60665 7.60665
C-5.58934 9.62396 -2.8529 10.7574 0 10.7574
z
" id="C1_12_6ff96363b0"/>
     <path d="
M0 9.3191
C2.47145 9.3191 4.84202 8.33718 6.5896 6.5896
C8.33718 4.84202 9.3191 2.47145 9.3191 0
C9.3191 -2.47145 8.33718 -4.84202 6.5896 -6.5896
C4.84202 -8.33718 2.47145 -9.3191 0 -9.3191
C-2.47145 -9.3191 -4.84202 -8.33718 -6.5896 -6.5896
C-8.33718 -4.84202 -9.3191 -2.47145 -9.3191 0
C-9.3191 2.47145 -8.33718 4.84202 -6.5896 6.5896
C-4.84202 8.33718 -2.47145 9.3191 0 9.3191
z
" id="C1_13_9f0b52fa5f"/>
     <path d="
M0 11.3977
C3.02271 11.3977 5.92202 10.1968 8.0594 8.0594
C10.1968 5.92202 11.3977 3.02271 11.3977 0
C11.3977 -3.02271 10.1968 -5.92202 8.0594 -8.0594
C5.92202 -10.1968 3.02271 -11.3977 0 -11.3977
C-3.02271 -11.3977 -5.92202 -10.1968 -8.0594 -8.0594
C-10.1968 -5.92202 -11.3977 -3.02271 -11.3977 0
C-11.3977 3.02271 -10.1968 5.92202 -8.0594 8.0594
C-5.92202 10.1968 -3.02271 11.3977 0 11.3977
z
" id="C1_14_5972a88b5b"/>
     <path d="
M0 8.85014
C2.34709 8.85014 4.59836 7.91764 6.258 6.258
C7.91764 4.59836 8.85014 2.34709 8.85014 0
C8.85014 -2.34709 7.91764 -4.59836 6.258 -6.258
C4.59836 -7.91764 2.34709 -8.85014 0 -8.85014
C-2.34709 -8.85014 -4.59836 -7.91764 -6.258 -6.258
C-7.91764 -4.59836 -8.85014 -2.34709 -8.85014 0
C-8.85014 2.34709 -7.91764 4.59836 -6.258 6.258
C-4.59836 7.91764 -2.34709 8.85014 0 8.85014
z
" id="C1_15_0a77003c9d"/>
    </defs>
    <g clip-path="url(#pc915e621bb)">
     <use style="fill:#124984;stroke:#000000;" x="189.87387003" xlink:href="#C1_0_2d572cb2f1" y="256.349932971"/>
    </g>
    <g clip-path="url(#pc915e621bb)">
     <use style="fill:#d25849;stroke:#000000;" x="309.221155553" xlink:href="#C1_1_1be3fcb2b5" y="76.3616912714"/>
    </g>
    <g clip-path="url(#pc915e621bb)">
     <use style="fill:#e6866a;stroke:#000000;" x="277.204536569" xlink:href="#C1_2_07fdb1101f" y="145.768297918"/>
    </g>
    <g clip-path="url(#pc915e621bb)">
     <use style="fill:#aed3e6;stroke:#000000;" x="215.434900546" xlink:href="#C1_3_1f97d3b921" y="45.7714285714"/>
    </g>
    <g clip-path="url(#pc915e621bb)">
     <use style="fill:#bb2a34;stroke:#000000;" x="102.175037155" xlink:href="#C1_4_1fee068024" y="79.6756764593"/>
    </g>
    <g clip-path="url(#pc915e621bb)">
     <use style="fill:#c6413e;stroke:#000000;" x="64.4064199844" xlink:href="#C1_5_845c1ea425" y="128.062759686"/>
    </g>
    <g clip-path="url(#pc915e621bb)">
     <use style="fill:#8a0b25;stroke:#000000;" x="81.6345771833" xlink:href="#C1_6_3ef7e90864" y="215.196533103"/>
    </g>
    <g clip-path="url(#pc915e621bb)">
     <use style="fill:#053061;stroke:#000000;" x="209.115868008" xlink:href="#C1_7_8b6dacb437" y="266.771142817"/>
    </g>
    <g clip-path="url(#pc915e621bb)">
     <use style="fill:#ec9374;stroke:#000000;" x="80.1417805564" xlink:href="#C1_8_b9fb80c31f" y="102.784946639"/>
    </g>
    <g clip-path="url(#pc915e621bb)">
     <use style="fill:#df765e;stroke:#000000;" x="301.525149961" xlink:href="#C1_9_16053c7d95" y="105.784090735"/>
    </g>
    <g clip-path="url(#pc915e621bb)">
     <use style="fill:#ea8e70;stroke:#000000;" x="357.823132975" xlink:href="#C1_a_82f3a8e0ac" y="131.409640628"/>
    </g>
    <g clip-path="url(#pc915e621bb)">
     <use style="fill:#4695c4;stroke:#000000;" x="316.020906994" xlink:href="#C1_b_a0a5a03103" y="241.946386369"/>
    </g>
    <g clip-path="url(#pc915e621bb)">
     <use style="fill:#c53e3d;stroke:#000000;" x="362.175902273" xlink:href="#C1_c_36051c11bd" y="155.369257986"/>
    </g>
    <g clip-path="url(#pc915e621bb)">
     <use style="fill:#f8bfa4;stroke:#000000;" x="154.231683294" xlink:href="#C1_d_2df9d72b74" y="268.161047033"/>
    </g>
    <g clip-path="url(#pc915e621bb)">
     <use style="fill:#eb9172;stroke:#000000;" x="124.183204759" xlink:href="#C1_e_9db1600ceb" y="65.5356023676"/>
    </g>
    <g clip-path="url(#pc915e621bb)">
     <use style="fill:#e6866a;stroke:#000000;" x="234.764424382" xlink:href="#C1_f_208c9d9273" y="215.752751589"/>
    </g>
    <g clip-path="url(#pc915e621bb)">
     <use style="fill:#e37e64;stroke:#000000;" x="330.726673731" xlink:href="#C1_10_e58f176cd4" y="114.35042098"/>
    </g>
    <g clip-path="url(#pc915e621bb)">
     <use style="fill:#facab1;stroke:#000000;" x="281.653352042" xlink:href="#C1_11_b2d9855b07" y="90.1541686804"/>
    </g>
    <g clip-path="url(#pc915e621bb)">
     <use style="fill:#a21328;stroke:#000000;" x="60.8142857143" xlink:href="#C1_12_6ff96363b0" y="153.8733176"/>
    </g>
    <g clip-path="url(#pc915e621bb)">
     <use style="fill:#e27b62;stroke:#000000;" x="67.1216108484" xlink:href="#C1_13_9f0b52fa5f" y="187.72084374"/>
    </g>
    <g clip-path="url(#pc915e621bb)">
     <use style="fill:#1f63a8;stroke:#000000;" x="337.340662036" xlink:href="#C1_14_5972a88b5b" y="222.532636726"/>
    </g>
    <g clip-path="url(#pc915e621bb)">
     <use style="fill:#c13639;stroke:#000000;" x="237.500443102" xlink:href="#C1_15_0a77003c9d" y="274.628571429"/>
    </g>
   </g>
   <g id="text_1">
    <g clip-path="url(#pc915e621bb)">
     <!-- proline[m] -->
     <defs>
      <path d="
M8.59375 75.9844
L29.2969 75.9844
L29.2969 69
L17.5781 69
L17.5781 -6.20312
L29.2969 -6.20312
L29.2969 -13.1875
L8.59375 -13.1875
z
" id="BitstreamVeraSans-Roman-5b"/>
      <path d="
M30.4219 75.9844
L30.4219 -13.1875
L9.71875 -13.1875
L9.71875 -6.20312
L21.3906 -6.20312
L21.3906 69
L9.71875 69
L9.71875 75.9844
z
" id="BitstreamVeraSans-Roman-5d"/>
      <path d="
M54.8906 33.0156
L54.8906 0
L45.9062 0
L45.9062 32.7188
Q45.9062 40.4844 42.875 44.3281
Q39.8438 48.1875 33.7969 48.1875
Q26.5156 48.1875 22.3125 43.5469
Q18.1094 38.9219 18.1094 30.9062
L18.1094 0
L9.07812 0
L9.07812 54.6875
L18.1094 54.6875
L18.1094 46.1875
Q21.3438 51.125 25.7031 53.5625
Q30.0781 56 35.7969 56
Q45.2188 56 50.0469 50.1719
Q54.8906 44.3438 54.8906 33.0156" id="BitstreamVeraSans-Roman-6e"/>
      <path d="
M52 44.1875
Q55.375 50.25 60.0625 53.125
Q64.75 56 71.0938 56
Q79.6406 56 84.2812 50.0156
Q88.9219 44.0469 88.9219 33.0156
L88.9219 0
L79.8906 0
L79.8906 32.7188
Q79.8906 40.5781 77.0938 44.375
Q74.3125 48.1875 68.6094 48.1875
Q61.625 48.1875 57.5625 43.5469
Q53.5156 38.9219 53.5156 30.9062
L53.5156 0
L44.4844 0
L44.4844 32.7188
Q44.4844 40.625 41.7031 44.4062
Q38.9219 48.1875 33.1094 48.1875
Q26.2188 48.1875 22.1562 43.5312
Q18.1094 38.875 18.1094 30.9062
L18.1094 0
L9.07812 0
L9.07812 54.6875
L18.1094 54.6875
L18.1094 46.1875
Q21.1875 51.2188 25.4844 53.6094
Q29.7812 56 35.6875 56
Q41.6562 56 45.8281 52.9688
Q50 49.9531 52 44.1875" id="BitstreamVeraSans-Roman-6d"/>
      <path d="
M30.6094 48.3906
Q23.3906 48.3906 19.1875 42.75
Q14.9844 37.1094 14.9844 27.2969
Q14.9844 17.4844 19.1562 11.8438
Q23.3438 6.20312 30.6094 6.20312
Q37.7969 6.20312 41.9844 11.8594
Q46.1875 17.5312 46.1875 27.2969
Q46.1875 37.0156 41.9844 42.7031
Q37.7969 48.3906 30.6094 48.3906
M30.6094 56
Q42.3281 56 49.0156 48.375
Q55.7188 40.7656 55.7188 27.2969
Q55.7188 13.875 49.0156 6.21875
Q42.3281 -1.42188 30.6094 -1.42188
Q18.8438 -1.42188 12.1719 6.21875
Q5.51562 13.875 5.51562 27.2969
Q5.51562 40.7656 12.1719 48.375
Q18.8438 56 30.6094 56" id="BitstreamVeraSans-Roman-6f"/>
      <path d="
M9.42188 75.9844
L18.4062 75.9844
L18.4062 0
L9.42188 0
z
" id="BitstreamVeraSans-Roman-6c"/>
      <path d="
M9.42188 54.6875
L18.4062 54.6875
L18.4062 0
L9.42188 0
z

M9.42188 75.9844
L18.4062 75.9844
L18.4062 64.5938
L9.42188 64.5938
z
" id="BitstreamVeraSans-Roman-69"/>
      <path d="
M56.2031 29.5938
L56.2031 25.2031
L14.8906 25.2031
Q15.4844 15.9219 20.4844 11.0625
Q25.4844 6.20312 34.4219 6.20312
Q39.5938 6.20312 44.4531 7.46875
Q49.3125 8.73438 54.1094 11.2812
L54.1094 2.78125
Q49.2656 0.734375 44.1875 -0.34375
Q39.1094 -1.42188 33.8906 -1.42188
Q20.7969 -1.42188 13.1562 6.1875
Q5.51562 13.8125 5.51562 26.8125
Q5.51562 40.2344 12.7656 48.1094
Q20.0156 56 32.3281 56
Q43.3594 56 49.7812 48.8906
Q56.2031 41.7969 56.2031 29.5938
M47.2188 32.2344
Q47.125 39.5938 43.0938 43.9844
Q39.0625 48.3906 32.4219 48.3906
Q24.9062 48.3906 20.3906 44.1406
Q15.875 39.8906 15.1875 32.1719
z
" id="BitstreamVeraSans-Roman-65"/>
      <path d="
M41.1094 46.2969
Q39.5938 47.1719 37.8125 47.5781
Q36.0312 48 33.8906 48
Q26.2656 48 22.1875 43.0469
Q18.1094 38.0938 18.1094 28.8125
L18.1094 0
L9.07812 0
L9.07812 54.6875
L18.1094 54.6875
L18.1094 46.1875
Q20.9531 51.1719 25.4844 53.5781
Q30.0312 56 36.5312 56
Q37.4531 56 38.5781 55.875
Q39.7031 55.7656 41.0625 55.5156
z
" id="BitstreamVeraSans-Roman-72"/>
      <path d="
M18.1094 8.20312
L18.1094 -20.7969
L9.07812 -20.7969
L9.07812 54.6875
L18.1094 54.6875
L18.1094 46.3906
Q20.9531 51.2656 25.2656 53.625
Q29.5938 56 35.5938 56
Q45.5625 56 51.7812 48.0938
Q58.0156 40.1875 58.0156 27.2969
Q58.0156 14.4062 51.7812 6.48438
Q45.5625 -1.42188 35.5938 -1.42188
Q29.5938 -1.42188 25.2656 0.953125
Q20.9531 3.32812 18.1094 8.20312
M48.6875 27.2969
Q48.6875 37.2031 44.6094 42.8438
Q40.5312 48.4844 33.4062 48.4844
Q26.2656 48.4844 22.1875 42.8438
Q18.1094 37.2031 18.1094 27.2969
Q18.1094 17.3906 22.1875 11.75
Q26.2656 6.10938 33.4062 6.10938
Q40.5312 6.10938 44.6094 11.75
Q48.6875 17.3906 48.6875 27.2969" id="BitstreamVeraSans-Roman-70"/>
     </defs>
     <g transform="translate(308.147220606 116.83385848)scale(0.09 -0.09)">
      <use xlink:href="#BitstreamVeraSans-Roman-70"/>
      <use x="63.4765625" xlink:href="#BitstreamVeraSans-Roman-72"/>
      <use x="102.33984375" xlink:href="#BitstreamVeraSans-Roman-6f"/>
      <use x="163.521484375" xlink:href="#BitstreamVeraSans-Roman-6c"/>
      <use x="191.3046875" xlink:href="#BitstreamVeraSans-Roman-69"/>
      <use x="219.087890625" xlink:href="#BitstreamVeraSans-Roman-6e"/>
      <use x="282.466796875" xlink:href="#BitstreamVeraSans-Roman-65"/>
      <use x="343.990234375" xlink:href="#BitstreamVeraSans-Roman-5b"/>
      <use x="383.00390625" xlink:href="#BitstreamVeraSans-Roman-6d"/>
      <use x="480.416015625" xlink:href="#BitstreamVeraSans-Roman-5d"/>
     </g>
    </g>
   </g>
   <g id="text_2">
    <g clip-path="url(#pc915e621bb)">
     <!-- UTP[m] -->
     <defs>
      <path d="
M19.6719 64.7969
L19.6719 37.4062
L32.0781 37.4062
Q38.9688 37.4062 42.7188 40.9688
Q46.4844 44.5312 46.4844 51.125
Q46.4844 57.6719 42.7188 61.2344
Q38.9688 64.7969 32.0781 64.7969
z

M9.8125 72.9062
L32.0781 72.9062
Q44.3438 72.9062 50.6094 67.3594
Q56.8906 61.8125 56.8906 51.125
Q56.8906 40.3281 50.6094 34.8125
Q44.3438 29.2969 32.0781 29.2969
L19.6719 29.2969
L19.6719 0
L9.8125 0
z
" id="BitstreamVeraSans-Roman-50"/>
      <path d="
M-0.296875 72.9062
L61.375 72.9062
L61.375 64.5938
L35.5 64.5938
L35.5 0
L25.5938 0
L25.5938 64.5938
L-0.296875 64.5938
z
" id="BitstreamVeraSans-Roman-54"/>
      <path d="
M8.6875 72.9062
L18.6094 72.9062
L18.6094 28.6094
Q18.6094 16.8906 22.8438 11.7344
Q27.0938 6.59375 36.625 6.59375
Q46.0938 6.59375 50.3438 11.7344
Q54.5938 16.8906 54.5938 28.6094
L54.5938 72.9062
L64.5 72.9062
L64.5 27.3906
Q64.5 13.1406 57.4375 5.85938
Q50.3906 -1.42188 36.625 -1.42188
Q22.7969 -1.42188 15.7344 5.85938
Q8.6875 13.1406 8.6875 27.3906
z
" id="BitstreamVeraSans-Roman-55"/>
     </defs>
     <g transform="translate(293.348811803 78.8451287714)scale(0.09 -0.09)">
      <use xlink:href="#BitstreamVeraSans-Roman-55"/>
      <use x="73.193359375" xlink:href="#BitstreamVeraSans-Roman-54"/>
      <use x="134.27734375" xlink:href="#BitstreamVeraSans-Roman-50"/>
      <use x="194.580078125" xlink:href="#BitstreamVeraSans-Roman-5b"/>
      <use x="233.59375" xlink:href="#BitstreamVeraSans-Roman-6d"/>
      <use x="331.005859375" xlink:href="#BitstreamVeraSans-Roman-5d"/>
     </g>
    </g>
   </g>
   <g id="text_3">
    <g clip-path="url(#pc915e621bb)">
     <!-- choloyl-CoA[c] -->
     <defs>
      <path d="
M64.4062 67.2812
L64.4062 56.8906
Q59.4219 61.5312 53.7812 63.8125
Q48.1406 66.1094 41.7969 66.1094
Q29.2969 66.1094 22.6562 58.4688
Q16.0156 50.8281 16.0156 36.375
Q16.0156 21.9688 22.6562 14.3281
Q29.2969 6.6875 41.7969 6.6875
Q48.1406 6.6875 53.7812 8.98438
Q59.4219 11.2812 64.4062 15.9219
L64.4062 5.60938
Q59.2344 2.09375 53.4375 0.328125
Q47.6562 -1.42188 41.2188 -1.42188
Q24.6562 -1.42188 15.125 8.70312
Q5.60938 18.8438 5.60938 36.375
Q5.60938 53.9531 15.125 64.0781
Q24.6562 74.2188 41.2188 74.2188
Q47.75 74.2188 53.5312 72.4844
Q59.3281 70.75 64.4062 67.2812" id="BitstreamVeraSans-Roman-43"/>
      <path d="
M4.89062 31.3906
L31.2031 31.3906
L31.2031 23.3906
L4.89062 23.3906
z
" id="BitstreamVeraSans-Roman-2d"/>
      <path d="
M34.1875 63.1875
L20.7969 26.9062
L47.6094 26.9062
z

M28.6094 72.9062
L39.7969 72.9062
L67.5781 0
L57.3281 0
L50.6875 18.7031
L17.8281 18.7031
L11.1875 0
L0.78125 0
z
" id="BitstreamVeraSans-Roman-41"/>
      <path d="
M32.1719 -5.07812
Q28.375 -14.8438 24.75 -17.8125
Q21.1406 -20.7969 15.0938 -20.7969
L7.90625 -20.7969
L7.90625 -13.2812
L13.1875 -13.2812
Q16.8906 -13.2812 18.9375 -11.5156
Q21 -9.76562 23.4844 -3.21875
L25.0938 0.875
L2.98438 54.6875
L12.5 54.6875
L29.5938 11.9219
L46.6875 54.6875
L56.2031 54.6875
z
" id="BitstreamVeraSans-Roman-79"/>
      <path d="
M48.7812 52.5938
L48.7812 44.1875
Q44.9688 46.2969 41.1406 47.3438
Q37.3125 48.3906 33.4062 48.3906
Q24.6562 48.3906 19.8125 42.8438
Q14.9844 37.3125 14.9844 27.2969
Q14.9844 17.2812 19.8125 11.7344
Q24.6562 6.20312 33.4062 6.20312
Q37.3125 6.20312 41.1406 7.25
Q44.9688 8.29688 48.7812 10.4062
L48.7812 2.09375
Q45.0156 0.34375 40.9844 -0.53125
Q36.9688 -1.42188 32.4219 -1.42188
Q20.0625 -1.42188 12.7812 6.34375
Q5.51562 14.1094 5.51562 27.2969
Q5.51562 40.6719 12.8594 48.3281
Q20.2188 56 33.0156 56
Q37.1562 56 41.1094 55.1406
Q45.0625 54.2969 48.7812 52.5938" id="BitstreamVeraSans-Roman-63"/>
      <path d="
M54.8906 33.0156
L54.8906 0
L45.9062 0
L45.9062 32.7188
Q45.9062 40.4844 42.875 44.3281
Q39.8438 48.1875 33.7969 48.1875
Q26.5156 48.1875 22.3125 43.5469
Q18.1094 38.9219 18.1094 30.9062
L18.1094 0
L9.07812 0
L9.07812 75.9844
L18.1094 75.9844
L18.1094 46.1875
Q21.3438 51.125 25.7031 53.5625
Q30.0781 56 35.7969 56
Q45.2188 56 50.0469 50.1719
Q54.8906 44.3438 54.8906 33.0156" id="BitstreamVeraSans-Roman-68"/>
     </defs>
     <g transform="translate(245.259458444 148.251735418)scale(0.09 -0.09)">
      <use xlink:href="#BitstreamVeraSans-Roman-63"/>
      <use x="54.98046875" xlink:href="#BitstreamVeraSans-Roman-68"/>
      <use x="118.359375" xlink:href="#BitstreamVeraSans-Roman-6f"/>
      <use x="179.541015625" xlink:href="#BitstreamVeraSans-Roman-6c"/>
      <use x="207.32421875" xlink:href="#BitstreamVeraSans-Roman-6f"/>
      <use x="268.505859375" xlink:href="#BitstreamVeraSans-Roman-79"/>
      <use x="327.685546875" xlink:href="#BitstreamVeraSans-Roman-6c"/>
      <use x="355.46875" xlink:href="#BitstreamVeraSans-Roman-2d"/>
      <use x="391.552734375" xlink:href="#BitstreamVeraSans-Roman-43"/>
      <use x="461.376953125" xlink:href="#BitstreamVeraSans-Roman-6f"/>
      <use x="522.55859375" xlink:href="#BitstreamVeraSans-Roman-41"/>
      <use x="590.966796875" xlink:href="#BitstreamVeraSans-Roman-5b"/>
      <use x="629.98046875" xlink:href="#BitstreamVeraSans-Roman-63"/>
      <use x="684.9609375" xlink:href="#BitstreamVeraSans-Roman-5d"/>
     </g>
    </g>
   </g>
   <g id="text_4">
    <g clip-path="url(#pc915e621bb)">
     <!-- NH3[p] -->
     <defs>
      <path d="
M40.5781 39.3125
Q47.6562 37.7969 51.625 33
Q55.6094 28.2188 55.6094 21.1875
Q55.6094 10.4062 48.1875 4.48438
Q40.7656 -1.42188 27.0938 -1.42188
Q22.5156 -1.42188 17.6562 -0.515625
Q12.7969 0.390625 7.625 2.20312
L7.625 11.7188
Q11.7188 9.32812 16.5938 8.10938
Q21.4844 6.89062 26.8125 6.89062
Q36.0781 6.89062 40.9375 10.5469
Q45.7969 14.2031 45.7969 21.1875
Q45.7969 27.6406 41.2812 31.2656
Q36.7656 34.9062 28.7188 34.9062
L20.2188 34.9062
L20.2188 43.0156
L29.1094 43.0156
Q36.375 43.0156 40.2344 45.9219
Q44.0938 48.8281 44.0938 54.2969
Q44.0938 59.9062 40.1094 62.9062
Q36.1406 65.9219 28.7188 65.9219
Q24.6562 65.9219 20.0156 65.0312
Q15.375 64.1562 9.8125 62.3125
L9.8125 71.0938
Q15.4375 72.6562 20.3438 73.4375
Q25.25 74.2188 29.5938 74.2188
Q40.8281 74.2188 47.3594 69.1094
Q53.9062 64.0156 53.9062 55.3281
Q53.9062 49.2656 50.4375 45.0938
Q46.9688 40.9219 40.5781 39.3125" id="BitstreamVeraSans-Roman-33"/>
      <path d="
M9.8125 72.9062
L23.0938 72.9062
L55.4219 11.9219
L55.4219 72.9062
L64.9844 72.9062
L64.9844 0
L51.7031 0
L19.3906 60.9844
L19.3906 0
L9.8125 0
z
" id="BitstreamVeraSans-Roman-4e"/>
      <path d="
M9.8125 72.9062
L19.6719 72.9062
L19.6719 43.0156
L55.5156 43.0156
L55.5156 72.9062
L65.375 72.9062
L65.375 0
L55.5156 0
L55.5156 34.7188
L19.6719 34.7188
L19.6719 0
L9.8125 0
z
" id="BitstreamVeraSans-Roman-48"/>
     </defs>
     <g transform="translate(200.281150546 48.2548660714)scale(0.09 -0.09)">
      <use xlink:href="#BitstreamVeraSans-Roman-4e"/>
      <use x="74.8046875" xlink:href="#BitstreamVeraSans-Roman-48"/>
      <use x="150.0" xlink:href="#BitstreamVeraSans-Roman-33"/>
      <use x="213.623046875" xlink:href="#BitstreamVeraSans-Roman-5b"/>
      <use x="252.63671875" xlink:href="#BitstreamVeraSans-Roman-70"/>
      <use x="316.11328125" xlink:href="#BitstreamVeraSans-Roman-5d"/>
     </g>
    </g>
   </g>
   <g id="text_5">
    <g clip-path="url(#pc915e621bb)">
     <!-- mannose[s] -->
     <defs>
      <path d="
M34.2812 27.4844
Q23.3906 27.4844 19.1875 25
Q14.9844 22.5156 14.9844 16.5
Q14.9844 11.7188 18.1406 8.90625
Q21.2969 6.10938 26.7031 6.10938
Q34.1875 6.10938 38.7031 11.4062
Q43.2188 16.7031 43.2188 25.4844
L43.2188 27.4844
z

M52.2031 31.2031
L52.2031 0
L43.2188 0
L43.2188 8.29688
Q40.1406 3.32812 35.5469 0.953125
Q30.9531 -1.42188 24.3125 -1.42188
Q15.9219 -1.42188 10.9531 3.29688
Q6 8.01562 6 15.9219
Q6 25.1406 12.1719 29.8281
Q18.3594 34.5156 30.6094 34.5156
L43.2188 34.5156
L43.2188 35.4062
Q43.2188 41.6094 39.1406 45
Q35.0625 48.3906 27.6875 48.3906
Q23 48.3906 18.5469 47.2656
Q14.1094 46.1406 10.0156 43.8906
L10.0156 52.2031
Q14.9375 54.1094 19.5781 55.0469
Q24.2188 56 28.6094 56
Q40.4844 56 46.3438 49.8438
Q52.2031 43.7031 52.2031 31.2031" id="BitstreamVeraSans-Roman-61"/>
      <path d="
M44.2812 53.0781
L44.2812 44.5781
Q40.4844 46.5312 36.375 47.5
Q32.2812 48.4844 27.875 48.4844
Q21.1875 48.4844 17.8438 46.4375
Q14.5 44.3906 14.5 40.2812
Q14.5 37.1562 16.8906 35.375
Q19.2812 33.5938 26.5156 31.9844
L29.5938 31.2969
Q39.1562 29.25 43.1875 25.5156
Q47.2188 21.7812 47.2188 15.0938
Q47.2188 7.46875 41.1875 3.01562
Q35.1562 -1.42188 24.6094 -1.42188
Q20.2188 -1.42188 15.4531 -0.5625
Q10.6875 0.296875 5.42188 2
L5.42188 11.2812
Q10.4062 8.6875 15.2344 7.39062
Q20.0625 6.10938 24.8125 6.10938
Q31.1562 6.10938 34.5625 8.28125
Q37.9844 10.4531 37.9844 14.4062
Q37.9844 18.0625 35.5156 20.0156
Q33.0625 21.9688 24.7031 23.7812
L21.5781 24.5156
Q13.2344 26.2656 9.51562 29.9062
Q5.8125 33.5469 5.8125 39.8906
Q5.8125 47.6094 11.2812 51.7969
Q16.75 56 26.8125 56
Q31.7812 56 36.1719 55.2656
Q40.5781 54.5469 44.2812 53.0781" id="BitstreamVeraSans-Roman-73"/>
     </defs>
     <g transform="translate(128.460042669 270.644484533)scale(0.09 -0.09)">
      <use xlink:href="#BitstreamVeraSans-Roman-6d"/>
      <use x="97.412109375" xlink:href="#BitstreamVeraSans-Roman-61"/>
      <use x="158.69140625" xlink:href="#BitstreamVeraSans-Roman-6e"/>
      <use x="222.0703125" xlink:href="#BitstreamVeraSans-Roman-6e"/>
      <use x="285.44921875" xlink:href="#BitstreamVeraSans-Roman-6f"/>
      <use x="346.630859375" xlink:href="#BitstreamVeraSans-Roman-73"/>
      <use x="398.73046875" xlink:href="#BitstreamVeraSans-Roman-65"/>
      <use x="460.25390625" xlink:href="#BitstreamVeraSans-Roman-5b"/>
      <use x="499.267578125" xlink:href="#BitstreamVeraSans-Roman-73"/>
      <use x="551.3671875" xlink:href="#BitstreamVeraSans-Roman-5d"/>
     </g>
    </g>
   </g>
   <g id="text_6">
    <g clip-path="url(#pc915e621bb)">
     <!-- nLc8Cer[g] -->
     <defs>
      <path d="
M31.7812 34.625
Q24.75 34.625 20.7188 30.8594
Q16.7031 27.0938 16.7031 20.5156
Q16.7031 13.9219 20.7188 10.1562
Q24.75 6.39062 31.7812 6.39062
Q38.8125 6.39062 42.8594 10.1719
Q46.9219 13.9688 46.9219 20.5156
Q46.9219 27.0938 42.8906 30.8594
Q38.875 34.625 31.7812 34.625
M21.9219 38.8125
Q15.5781 40.375 12.0312 44.7188
Q8.5 49.0781 8.5 55.3281
Q8.5 64.0625 14.7188 69.1406
Q20.9531 74.2188 31.7812 74.2188
Q42.6719 74.2188 48.875 69.1406
Q55.0781 64.0625 55.0781 55.3281
Q55.0781 49.0781 51.5312 44.7188
Q48 40.375 41.7031 38.8125
Q48.8281 37.1562 52.7969 32.3125
Q56.7812 27.4844 56.7812 20.5156
Q56.7812 9.90625 50.3125 4.23438
Q43.8438 -1.42188 31.7812 -1.42188
Q19.7344 -1.42188 13.25 4.23438
Q6.78125 9.90625 6.78125 20.5156
Q6.78125 27.4844 10.7812 32.3125
Q14.7969 37.1562 21.9219 38.8125
M18.3125 54.3906
Q18.3125 48.7344 21.8438 45.5625
Q25.3906 42.3906 31.7812 42.3906
Q38.1406 42.3906 41.7188 45.5625
Q45.3125 48.7344 45.3125 54.3906
Q45.3125 60.0625 41.7188 63.2344
Q38.1406 66.4062 31.7812 66.4062
Q25.3906 66.4062 21.8438 63.2344
Q18.3125 60.0625 18.3125 54.3906" id="BitstreamVeraSans-Roman-38"/>
      <path d="
M9.8125 72.9062
L19.6719 72.9062
L19.6719 8.29688
L55.1719 8.29688
L55.1719 0
L9.8125 0
z
" id="BitstreamVeraSans-Roman-4c"/>
      <path d="
M45.4062 27.9844
Q45.4062 37.75 41.375 43.1094
Q37.3594 48.4844 30.0781 48.4844
Q22.8594 48.4844 18.8281 43.1094
Q14.7969 37.75 14.7969 27.9844
Q14.7969 18.2656 18.8281 12.8906
Q22.8594 7.51562 30.0781 7.51562
Q37.3594 7.51562 41.375 12.8906
Q45.4062 18.2656 45.4062 27.9844
M54.3906 6.78125
Q54.3906 -7.17188 48.1875 -13.9844
Q42 -20.7969 29.2031 -20.7969
Q24.4688 -20.7969 20.2656 -20.0938
Q16.0625 -19.3906 12.1094 -17.9219
L12.1094 -9.1875
Q16.0625 -11.3281 19.9219 -12.3438
Q23.7812 -13.375 27.7812 -13.375
Q36.625 -13.375 41.0156 -8.76562
Q45.4062 -4.15625 45.4062 5.17188
L45.4062 9.625
Q42.625 4.78125 38.2812 2.39062
Q33.9375 0 27.875 0
Q17.8281 0 11.6719 7.65625
Q5.51562 15.3281 5.51562 27.9844
Q5.51562 40.6719 11.6719 48.3281
Q17.8281 56 27.875 56
Q33.9375 56 38.2812 53.6094
Q42.625 51.2188 45.4062 46.3906
L45.4062 54.6875
L54.3906 54.6875
z
" id="BitstreamVeraSans-Roman-67"/>
     </defs>
     <g transform="translate(40.3757168594 130.546197186)scale(0.09 -0.09)">
      <use xlink:href="#BitstreamVeraSans-Roman-6e"/>
      <use x="63.37890625" xlink:href="#BitstreamVeraSans-Roman-4c"/>
      <use x="119.091796875" xlink:href="#BitstreamVeraSans-Roman-63"/>
      <use x="174.072265625" xlink:href="#BitstreamVeraSans-Roman-38"/>
      <use x="237.6953125" xlink:href="#BitstreamVeraSans-Roman-43"/>
      <use x="307.51953125" xlink:href="#BitstreamVeraSans-Roman-65"/>
      <use x="369.04296875" xlink:href="#BitstreamVeraSans-Roman-72"/>
      <use x="410.15625" xlink:href="#BitstreamVeraSans-Roman-5b"/>
      <use x="449.169921875" xlink:href="#BitstreamVeraSans-Roman-67"/>
      <use x="512.646484375" xlink:href="#BitstreamVeraSans-Roman-5d"/>
     </g>
    </g>
   </g>
   <g id="text_7">
    <g clip-path="url(#pc915e621bb)">
     <!-- paragloboside[c] -->
     <defs>
      <path d="
M45.4062 46.3906
L45.4062 75.9844
L54.3906 75.9844
L54.3906 0
L45.4062 0
L45.4062 8.20312
Q42.5781 3.32812 38.25 0.953125
Q33.9375 -1.42188 27.875 -1.42188
Q17.9688 -1.42188 11.7344 6.48438
Q5.51562 14.4062 5.51562 27.2969
Q5.51562 40.1875 11.7344 48.0938
Q17.9688 56 27.875 56
Q33.9375 56 38.25 53.625
Q42.5781 51.2656 45.4062 46.3906
M14.7969 27.2969
Q14.7969 17.3906 18.875 11.75
Q22.9531 6.10938 30.0781 6.10938
Q37.2031 6.10938 41.2969 11.75
Q45.4062 17.3906 45.4062 27.2969
Q45.4062 37.2031 41.2969 42.8438
Q37.2031 48.4844 30.0781 48.4844
Q22.9531 48.4844 18.875 42.8438
Q14.7969 37.2031 14.7969 27.2969" id="BitstreamVeraSans-Roman-64"/>
      <path d="
M48.6875 27.2969
Q48.6875 37.2031 44.6094 42.8438
Q40.5312 48.4844 33.4062 48.4844
Q26.2656 48.4844 22.1875 42.8438
Q18.1094 37.2031 18.1094 27.2969
Q18.1094 17.3906 22.1875 11.75
Q26.2656 6.10938 33.4062 6.10938
Q40.5312 6.10938 44.6094 11.75
Q48.6875 17.3906 48.6875 27.2969
M18.1094 46.3906
Q20.9531 51.2656 25.2656 53.625
Q29.5938 56 35.5938 56
Q45.5625 56 51.7812 48.0938
Q58.0156 40.1875 58.0156 27.2969
Q58.0156 14.4062 51.7812 6.48438
Q45.5625 -1.42188 35.5938 -1.42188
Q29.5938 -1.42188 25.2656 0.953125
Q20.9531 3.32812 18.1094 8.20312
L18.1094 0
L9.07812 0
L9.07812 75.9844
L18.1094 75.9844
z
" id="BitstreamVeraSans-Roman-62"/>
     </defs>
     <g transform="translate(44.5313740583 217.679970603)scale(0.09 -0.09)">
      <use xlink:href="#BitstreamVeraSans-Roman-70"/>
      <use x="63.4765625" xlink:href="#BitstreamVeraSans-Roman-61"/>
      <use x="124.755859375" xlink:href="#BitstreamVeraSans-Roman-72"/>
      <use x="165.869140625" xlink:href="#BitstreamVeraSans-Roman-61"/>
      <use x="227.1484375" xlink:href="#BitstreamVeraSans-Roman-67"/>
      <use x="290.625" xlink:href="#BitstreamVeraSans-Roman-6c"/>
      <use x="318.408203125" xlink:href="#BitstreamVeraSans-Roman-6f"/>
      <use x="379.58984375" xlink:href="#BitstreamVeraSans-Roman-62"/>
      <use x="443.06640625" xlink:href="#BitstreamVeraSans-Roman-6f"/>
      <use x="504.248046875" xlink:href="#BitstreamVeraSans-Roman-73"/>
      <use x="556.34765625" xlink:href="#BitstreamVeraSans-Roman-69"/>
      <use x="584.130859375" xlink:href="#BitstreamVeraSans-Roman-64"/>
      <use x="647.607421875" xlink:href="#BitstreamVeraSans-Roman-65"/>
      <use x="709.130859375" xlink:href="#BitstreamVeraSans-Roman-5b"/>
      <use x="748.14453125" xlink:href="#BitstreamVeraSans-Roman-63"/>
      <use x="803.125" xlink:href="#BitstreamVeraSans-Roman-5d"/>
     </g>
    </g>
   </g>
   <g id="text_8">
    <g clip-path="url(#pc915e621bb)">
     <!-- 5-phosphoribosylamine[c] -->
     <defs>
      <path d="
M10.7969 72.9062
L49.5156 72.9062
L49.5156 64.5938
L19.8281 64.5938
L19.8281 46.7344
Q21.9688 47.4688 24.1094 47.8281
Q26.2656 48.1875 28.4219 48.1875
Q40.625 48.1875 47.75 41.5
Q54.8906 34.8125 54.8906 23.3906
Q54.8906 11.625 47.5625 5.09375
Q40.2344 -1.42188 26.9062 -1.42188
Q22.3125 -1.42188 17.5469 -0.640625
Q12.7969 0.140625 7.71875 1.70312
L7.71875 11.625
Q12.1094 9.23438 16.7969 8.0625
Q21.4844 6.89062 26.7031 6.89062
Q35.1562 6.89062 40.0781 11.3281
Q45.0156 15.7656 45.0156 23.3906
Q45.0156 31 40.0781 35.4375
Q35.1562 39.8906 26.7031 39.8906
Q22.75 39.8906 18.8125 39.0156
Q14.8906 38.1406 10.7969 36.2812
z
" id="BitstreamVeraSans-Roman-35"/>
     </defs>
     <g transform="translate(176.777705632 218.236189089)scale(0.09 -0.09)">
      <use xlink:href="#BitstreamVeraSans-Roman-35"/>
      <use x="63.623046875" xlink:href="#BitstreamVeraSans-Roman-2d"/>
      <use x="99.70703125" xlink:href="#BitstreamVeraSans-Roman-70"/>
      <use x="163.18359375" xlink:href="#BitstreamVeraSans-Roman-68"/>
      <use x="226.5625" xlink:href="#BitstreamVeraSans-Roman-6f"/>
      <use x="287.744140625" xlink:href="#BitstreamVeraSans-Roman-73"/>
      <use x="339.84375" xlink:href="#BitstreamVeraSans-Roman-70"/>
      <use x="403.3203125" xlink:href="#BitstreamVeraSans-Roman-68"/>
      <use x="466.69921875" xlink:href="#BitstreamVeraSans-Roman-6f"/>
      <use x="527.880859375" xlink:href="#BitstreamVeraSans-Roman-72"/>
      <use x="568.994140625" xlink:href="#BitstreamVeraSans-Roman-69"/>
      <use x="596.77734375" xlink:href="#BitstreamVeraSans-Roman-62"/>
      <use x="660.25390625" xlink:href="#BitstreamVeraSans-Roman-6f"/>
      <use x="721.435546875" xlink:href="#BitstreamVeraSans-Roman-73"/>
      <use x="773.53515625" xlink:href="#BitstreamVeraSans-Roman-79"/>
      <use x="832.71484375" xlink:href="#BitstreamVeraSans-Roman-6c"/>
      <use x="860.498046875" xlink:href="#BitstreamVeraSans-Roman-61"/>
      <use x="921.77734375" xlink:href="#BitstreamVeraSans-Roman-6d"/>
      <use x="1019.18945312" xlink:href="#BitstreamVeraSans-Roman-69"/>
      <use x="1046.97265625" xlink:href="#BitstreamVeraSans-Roman-6e"/>
      <use x="1110.3515625" xlink:href="#BitstreamVeraSans-Roman-65"/>
      <use x="1171.875" xlink:href="#BitstreamVeraSans-Roman-5b"/>
      <use x="1210.88867188" xlink:href="#BitstreamVeraSans-Roman-63"/>
      <use x="1265.86914062" xlink:href="#BitstreamVeraSans-Roman-5d"/>
     </g>
    </g>
   </g>
   <g id="text_9">
    <g clip-path="url(#pc915e621bb)">
     <!-- lactoneotetraosylceramide[g] -->
     <defs>
      <path d="
M18.3125 70.2188
L18.3125 54.6875
L36.8125 54.6875
L36.8125 47.7031
L18.3125 47.7031
L18.3125 18.0156
Q18.3125 11.3281 20.1406 9.42188
Q21.9688 7.51562 27.5938 7.51562
L36.8125 7.51562
L36.8125 0
L27.5938 0
Q17.1875 0 13.2344 3.875
Q9.28125 7.76562 9.28125 18.0156
L9.28125 47.7031
L2.6875 47.7031
L2.6875 54.6875
L9.28125 54.6875
L9.28125 70.2188
z
" id="BitstreamVeraSans-Roman-74"/>
     </defs>
     <g transform="translate(14.1844368064 105.268384139)scale(0.09 -0.09)">
      <use xlink:href="#BitstreamVeraSans-Roman-6c"/>
      <use x="27.783203125" xlink:href="#BitstreamVeraSans-Roman-61"/>
      <use x="89.0625" xlink:href="#BitstreamVeraSans-Roman-63"/>
      <use x="144.04296875" xlink:href="#BitstreamVeraSans-Roman-74"/>
      <use x="183.251953125" xlink:href="#BitstreamVeraSans-Roman-6f"/>
      <use x="244.43359375" xlink:href="#BitstreamVeraSans-Roman-6e"/>
      <use x="307.8125" xlink:href="#BitstreamVeraSans-Roman-65"/>
      <use x="369.3359375" xlink:href="#BitstreamVeraSans-Roman-6f"/>
      <use x="430.517578125" xlink:href="#BitstreamVeraSans-Roman-74"/>
      <use x="469.7265625" xlink:href="#BitstreamVeraSans-Roman-65"/>
      <use x="531.25" xlink:href="#BitstreamVeraSans-Roman-74"/>
      <use x="570.458984375" xlink:href="#BitstreamVeraSans-Roman-72"/>
      <use x="611.572265625" xlink:href="#BitstreamVeraSans-Roman-61"/>
      <use x="672.8515625" xlink:href="#BitstreamVeraSans-Roman-6f"/>
      <use x="734.033203125" xlink:href="#BitstreamVeraSans-Roman-73"/>
      <use x="786.1328125" xlink:href="#BitstreamVeraSans-Roman-79"/>
      <use x="845.3125" xlink:href="#BitstreamVeraSans-Roman-6c"/>
      <use x="873.095703125" xlink:href="#BitstreamVeraSans-Roman-63"/>
      <use x="928.076171875" xlink:href="#BitstreamVeraSans-Roman-65"/>
      <use x="989.599609375" xlink:href="#BitstreamVeraSans-Roman-72"/>
      <use x="1030.71289062" xlink:href="#BitstreamVeraSans-Roman-61"/>
      <use x="1091.9921875" xlink:href="#BitstreamVeraSans-Roman-6d"/>
      <use x="1189.40429688" xlink:href="#BitstreamVeraSans-Roman-69"/>
      <use x="1217.1875" xlink:href="#BitstreamVeraSans-Roman-64"/>
      <use x="1280.6640625" xlink:href="#BitstreamVeraSans-Roman-65"/>
      <use x="1342.1875" xlink:href="#BitstreamVeraSans-Roman-5b"/>
      <use x="1381.20117188" xlink:href="#BitstreamVeraSans-Roman-67"/>
      <use x="1444.67773438" xlink:href="#BitstreamVeraSans-Roman-5d"/>
     </g>
    </g>
   </g>
   <g id="text_10">
    <g clip-path="url(#pc915e621bb)">
     <!-- calcitriol[m] -->
     <g transform="translate(275.191009336 108.267528235)scale(0.09 -0.09)">
      <use xlink:href="#BitstreamVeraSans-Roman-63"/>
      <use x="54.98046875" xlink:href="#BitstreamVeraSans-Roman-61"/>
      <use x="116.259765625" xlink:href="#BitstreamVeraSans-Roman-6c"/>
      <use x="144.04296875" xlink:href="#BitstreamVeraSans-Roman-63"/>
      <use x="199.0234375" xlink:href="#BitstreamVeraSans-Roman-69"/>
      <use x="226.806640625" xlink:href="#BitstreamVeraSans-Roman-74"/>
      <use x="266.015625" xlink:href="#BitstreamVeraSans-Roman-72"/>
      <use x="307.12890625" xlink:href="#BitstreamVeraSans-Roman-69"/>
      <use x="334.912109375" xlink:href="#BitstreamVeraSans-Roman-6f"/>
      <use x="396.09375" xlink:href="#BitstreamVeraSans-Roman-6c"/>
      <use x="423.876953125" xlink:href="#BitstreamVeraSans-Roman-5b"/>
      <use x="462.890625" xlink:href="#BitstreamVeraSans-Roman-6d"/>
      <use x="560.302734375" xlink:href="#BitstreamVeraSans-Roman-5d"/>
     </g>
    </g>
   </g>
   <g id="text_11">
    <g clip-path="url(#pc915e621bb)">
     <!-- 1-pyrroline-5-carboxylate[c]*2 -->
     <defs>
      <path d="
M47.0156 60.8906
L29.5 51.4219
L47.0156 41.8906
L44.1875 37.1094
L27.7812 47.0156
L27.7812 28.6094
L22.2188 28.6094
L22.2188 47.0156
L5.8125 37.1094
L2.98438 41.8906
L20.5156 51.4219
L2.98438 60.8906
L5.8125 65.7188
L22.2188 55.8125
L22.2188 74.2188
L27.7812 74.2188
L27.7812 55.8125
L44.1875 65.7188
z
" id="BitstreamVeraSans-Roman-2a"/>
      <path d="
M19.1875 8.29688
L53.6094 8.29688
L53.6094 0
L7.32812 0
L7.32812 8.29688
Q12.9375 14.1094 22.625 23.8906
Q32.3281 33.6875 34.8125 36.5312
Q39.5469 41.8438 41.4219 45.5312
Q43.3125 49.2188 43.3125 52.7812
Q43.3125 58.5938 39.2344 62.25
Q35.1562 65.9219 28.6094 65.9219
Q23.9688 65.9219 18.8125 64.3125
Q13.6719 62.7031 7.8125 59.4219
L7.8125 69.3906
Q13.7656 71.7812 18.9375 73
Q24.125 74.2188 28.4219 74.2188
Q39.75 74.2188 46.4844 68.5469
Q53.2188 62.8906 53.2188 53.4219
Q53.2188 48.9219 51.5312 44.8906
Q49.8594 40.875 45.4062 35.4062
Q44.1875 33.9844 37.6406 27.2188
Q31.1094 20.4531 19.1875 8.29688" id="BitstreamVeraSans-Roman-32"/>
      <path d="
M12.4062 8.29688
L28.5156 8.29688
L28.5156 63.9219
L10.9844 60.4062
L10.9844 69.3906
L28.4219 72.9062
L38.2812 72.9062
L38.2812 8.29688
L54.3906 8.29688
L54.3906 0
L12.4062 0
z
" id="BitstreamVeraSans-Roman-31"/>
      <path d="
M54.8906 54.6875
L35.1094 28.0781
L55.9062 0
L45.3125 0
L29.3906 21.4844
L13.4844 0
L2.875 0
L24.125 28.6094
L4.6875 54.6875
L15.2812 54.6875
L29.7812 35.2031
L44.2812 54.6875
z
" id="BitstreamVeraSans-Roman-78"/>
     </defs>
     <g transform="translate(290.73867985 133.893078128)scale(0.09 -0.09)">
      <use xlink:href="#BitstreamVeraSans-Roman-31"/>
      <use x="63.623046875" xlink:href="#BitstreamVeraSans-Roman-2d"/>
      <use x="99.70703125" xlink:href="#BitstreamVeraSans-Roman-70"/>
      <use x="163.18359375" xlink:href="#BitstreamVeraSans-Roman-79"/>
      <use x="222.36328125" xlink:href="#BitstreamVeraSans-Roman-72"/>
      <use x="261.7265625" xlink:href="#BitstreamVeraSans-Roman-72"/>
      <use x="300.58984375" xlink:href="#BitstreamVeraSans-Roman-6f"/>
      <use x="361.771484375" xlink:href="#BitstreamVeraSans-Roman-6c"/>
      <use x="389.5546875" xlink:href="#BitstreamVeraSans-Roman-69"/>
      <use x="417.337890625" xlink:href="#BitstreamVeraSans-Roman-6e"/>
      <use x="480.716796875" xlink:href="#BitstreamVeraSans-Roman-65"/>
      <use x="542.240234375" xlink:href="#BitstreamVeraSans-Roman-2d"/>
      <use x="578.32421875" xlink:href="#BitstreamVeraSans-Roman-35"/>
      <use x="641.947265625" xlink:href="#BitstreamVeraSans-Roman-2d"/>
      <use x="678.03125" xlink:href="#BitstreamVeraSans-Roman-63"/>
      <use x="733.01171875" xlink:href="#BitstreamVeraSans-Roman-61"/>
      <use x="794.291015625" xlink:href="#BitstreamVeraSans-Roman-72"/>
      <use x="835.404296875" xlink:href="#BitstreamVeraSans-Roman-62"/>
      <use x="898.880859375" xlink:href="#BitstreamVeraSans-Roman-6f"/>
      <use x="956.9375" xlink:href="#BitstreamVeraSans-Roman-78"/>
      <use x="1016.1171875" xlink:href="#BitstreamVeraSans-Roman-79"/>
      <use x="1075.296875" xlink:href="#BitstreamVeraSans-Roman-6c"/>
      <use x="1103.08007812" xlink:href="#BitstreamVeraSans-Roman-61"/>
      <use x="1164.359375" xlink:href="#BitstreamVeraSans-Roman-74"/>
      <use x="1203.56835938" xlink:href="#BitstreamVeraSans-Roman-65"/>
      <use x="1265.09179688" xlink:href="#BitstreamVeraSans-Roman-5b"/>
      <use x="1304.10546875" xlink:href="#BitstreamVeraSans-Roman-63"/>
      <use x="1359.0859375" xlink:href="#BitstreamVeraSans-Roman-5d"/>
      <use x="1398.09960938" xlink:href="#BitstreamVeraSans-Roman-2a"/>
      <use x="1448.09960938" xlink:href="#BitstreamVeraSans-Roman-32"/>
     </g>
    </g>
   </g>
   <g id="text_12">
    <g clip-path="url(#pc915e621bb)">
     <!-- butyrate[c] -->
     <defs>
      <path d="
M8.5 21.5781
L8.5 54.6875
L17.4844 54.6875
L17.4844 21.9219
Q17.4844 14.1562 20.5 10.2656
Q23.5312 6.39062 29.5938 6.39062
Q36.8594 6.39062 41.0781 11.0312
Q45.3125 15.6719 45.3125 23.6875
L45.3125 54.6875
L54.2969 54.6875
L54.2969 0
L45.3125 0
L45.3125 8.40625
Q42.0469 3.42188 37.7188 1
Q33.4062 -1.42188 27.6875 -1.42188
Q18.2656 -1.42188 13.375 4.4375
Q8.5 10.2969 8.5 21.5781" id="BitstreamVeraSans-Roman-75"/>
     </defs>
     <g transform="translate(291.553563244 244.429823869)scale(0.09 -0.09)">
      <use xlink:href="#BitstreamVeraSans-Roman-62"/>
      <use x="63.4765625" xlink:href="#BitstreamVeraSans-Roman-75"/>
      <use x="126.85546875" xlink:href="#BitstreamVeraSans-Roman-74"/>
      <use x="166.064453125" xlink:href="#BitstreamVeraSans-Roman-79"/>
      <use x="225.244140625" xlink:href="#BitstreamVeraSans-Roman-72"/>
      <use x="266.357421875" xlink:href="#BitstreamVeraSans-Roman-61"/>
      <use x="327.63671875" xlink:href="#BitstreamVeraSans-Roman-74"/>
      <use x="366.845703125" xlink:href="#BitstreamVeraSans-Roman-65"/>
      <use x="428.369140625" xlink:href="#BitstreamVeraSans-Roman-5b"/>
      <use x="467.3828125" xlink:href="#BitstreamVeraSans-Roman-63"/>
      <use x="522.36328125" xlink:href="#BitstreamVeraSans-Roman-5d"/>
     </g>
    </g>
   </g>
   <g id="text_13">
    <g clip-path="url(#pc915e621bb)">
     <!-- L-1-pyrroline-3-hydroxy-5-carboxylate[c] -->
     <g transform="translate(271.943871023 157.852695486)scale(0.09 -0.09)">
      <use xlink:href="#BitstreamVeraSans-Roman-4c"/>
      <use x="53.962890625" xlink:href="#BitstreamVeraSans-Roman-2d"/>
      <use x="90.046875" xlink:href="#BitstreamVeraSans-Roman-31"/>
      <use x="153.669921875" xlink:href="#BitstreamVeraSans-Roman-2d"/>
      <use x="189.75390625" xlink:href="#BitstreamVeraSans-Roman-70"/>
      <use x="253.23046875" xlink:href="#BitstreamVeraSans-Roman-79"/>
      <use x="312.41015625" xlink:href="#BitstreamVeraSans-Roman-72"/>
      <use x="351.7734375" xlink:href="#BitstreamVeraSans-Roman-72"/>
      <use x="390.63671875" xlink:href="#BitstreamVeraSans-Roman-6f"/>
      <use x="451.818359375" xlink:href="#BitstreamVeraSans-Roman-6c"/>
      <use x="479.6015625" xlink:href="#BitstreamVeraSans-Roman-69"/>
      <use x="507.384765625" xlink:href="#BitstreamVeraSans-Roman-6e"/>
      <use x="570.763671875" xlink:href="#BitstreamVeraSans-Roman-65"/>
      <use x="632.287109375" xlink:href="#BitstreamVeraSans-Roman-2d"/>
      <use x="668.37109375" xlink:href="#BitstreamVeraSans-Roman-33"/>
      <use x="731.994140625" xlink:href="#BitstreamVeraSans-Roman-2d"/>
      <use x="768.078125" xlink:href="#BitstreamVeraSans-Roman-68"/>
      <use x="831.45703125" xlink:href="#BitstreamVeraSans-Roman-79"/>
      <use x="890.63671875" xlink:href="#BitstreamVeraSans-Roman-64"/>
      <use x="954.11328125" xlink:href="#BitstreamVeraSans-Roman-72"/>
      <use x="992.9765625" xlink:href="#BitstreamVeraSans-Roman-6f"/>
      <use x="1051.03320312" xlink:href="#BitstreamVeraSans-Roman-78"/>
      <use x="1110.21289062" xlink:href="#BitstreamVeraSans-Roman-79"/>
      <use x="1167.64257812" xlink:href="#BitstreamVeraSans-Roman-2d"/>
      <use x="1203.7265625" xlink:href="#BitstreamVeraSans-Roman-35"/>
      <use x="1267.34960938" xlink:href="#BitstreamVeraSans-Roman-2d"/>
      <use x="1303.43359375" xlink:href="#BitstreamVeraSans-Roman-63"/>
      <use x="1358.4140625" xlink:href="#BitstreamVeraSans-Roman-61"/>
      <use x="1419.69335938" xlink:href="#BitstreamVeraSans-Roman-72"/>
      <use x="1460.80664062" xlink:href="#BitstreamVeraSans-Roman-62"/>
      <use x="1524.28320312" xlink:href="#BitstreamVeraSans-Roman-6f"/>
      <use x="1582.33984375" xlink:href="#BitstreamVeraSans-Roman-78"/>
      <use x="1641.51953125" xlink:href="#BitstreamVeraSans-Roman-79"/>
      <use x="1700.69921875" xlink:href="#BitstreamVeraSans-Roman-6c"/>
      <use x="1728.48242188" xlink:href="#BitstreamVeraSans-Roman-61"/>
      <use x="1789.76171875" xlink:href="#BitstreamVeraSans-Roman-74"/>
      <use x="1828.97070312" xlink:href="#BitstreamVeraSans-Roman-65"/>
      <use x="1890.49414062" xlink:href="#BitstreamVeraSans-Roman-5b"/>
      <use x="1929.5078125" xlink:href="#BitstreamVeraSans-Roman-63"/>
      <use x="1984.48828125" xlink:href="#BitstreamVeraSans-Roman-5d"/>
     </g>
    </g>
   </g>
   <g id="text_14">
    <g clip-path="url(#pc915e621bb)">
     <!-- glucose[g] -->
     <g transform="translate(79.1420684047 82.1591139593)scale(0.09 -0.09)">
      <use xlink:href="#BitstreamVeraSans-Roman-67"/>
      <use x="63.4765625" xlink:href="#BitstreamVeraSans-Roman-6c"/>
      <use x="91.259765625" xlink:href="#BitstreamVeraSans-Roman-75"/>
      <use x="154.638671875" xlink:href="#BitstreamVeraSans-Roman-63"/>
      <use x="209.619140625" xlink:href="#BitstreamVeraSans-Roman-6f"/>
      <use x="270.80078125" xlink:href="#BitstreamVeraSans-Roman-73"/>
      <use x="322.900390625" xlink:href="#BitstreamVeraSans-Roman-65"/>
      <use x="384.423828125" xlink:href="#BitstreamVeraSans-Roman-5b"/>
      <use x="423.4375" xlink:href="#BitstreamVeraSans-Roman-67"/>
      <use x="486.9140625" xlink:href="#BitstreamVeraSans-Roman-5d"/>
     </g>
    </g>
   </g>
   <g id="text_15">
    <g clip-path="url(#pc915e621bb)">
     <!-- core 4[g] -->
     <defs>
      <path id="BitstreamVeraSans-Roman-20"/>
      <path d="
M37.7969 64.3125
L12.8906 25.3906
L37.7969 25.3906
z

M35.2031 72.9062
L47.6094 72.9062
L47.6094 25.3906
L58.0156 25.3906
L58.0156 17.1875
L47.6094 17.1875
L47.6094 0
L37.7969 0
L37.7969 17.1875
L4.89062 17.1875
L4.89062 26.7031
z
" id="BitstreamVeraSans-Roman-34"/>
     </defs>
     <g transform="translate(104.163126634 68.0190398676)scale(0.09 -0.09)">
      <use xlink:href="#BitstreamVeraSans-Roman-63"/>
      <use x="54.98046875" xlink:href="#BitstreamVeraSans-Roman-6f"/>
      <use x="116.162109375" xlink:href="#BitstreamVeraSans-Roman-72"/>
      <use x="155.025390625" xlink:href="#BitstreamVeraSans-Roman-65"/>
      <use x="216.548828125" xlink:href="#BitstreamVeraSans-Roman-20"/>
      <use x="248.3359375" xlink:href="#BitstreamVeraSans-Roman-34"/>
      <use x="311.958984375" xlink:href="#BitstreamVeraSans-Roman-5b"/>
      <use x="350.97265625" xlink:href="#BitstreamVeraSans-Roman-67"/>
      <use x="414.44921875" xlink:href="#BitstreamVeraSans-Roman-5d"/>
     </g>
    </g>
   </g>
   <g id="text_16">
    <g clip-path="url(#pc915e621bb)">
     <!-- arachidonate[s] -->
     <g transform="translate(174.222586758 269.254580317)scale(0.09 -0.09)">
      <use xlink:href="#BitstreamVeraSans-Roman-61"/>
      <use x="61.279296875" xlink:href="#BitstreamVeraSans-Roman-72"/>
      <use x="102.392578125" xlink:href="#BitstreamVeraSans-Roman-61"/>
      <use x="163.671875" xlink:href="#BitstreamVeraSans-Roman-63"/>
      <use x="218.65234375" xlink:href="#BitstreamVeraSans-Roman-68"/>
      <use x="282.03125" xlink:href="#BitstreamVeraSans-Roman-69"/>
      <use x="309.814453125" xlink:href="#BitstreamVeraSans-Roman-64"/>
      <use x="373.291015625" xlink:href="#BitstreamVeraSans-Roman-6f"/>
      <use x="434.47265625" xlink:href="#BitstreamVeraSans-Roman-6e"/>
      <use x="497.8515625" xlink:href="#BitstreamVeraSans-Roman-61"/>
      <use x="559.130859375" xlink:href="#BitstreamVeraSans-Roman-74"/>
      <use x="598.33984375" xlink:href="#BitstreamVeraSans-Roman-65"/>
      <use x="659.86328125" xlink:href="#BitstreamVeraSans-Roman-5b"/>
      <use x="698.876953125" xlink:href="#BitstreamVeraSans-Roman-73"/>
      <use x="750.9765625" xlink:href="#BitstreamVeraSans-Roman-5d"/>
     </g>
    </g>
   </g>
   <g id="text_17">
    <g clip-path="url(#pc915e621bb)">
     <!-- palmitate[s] -->
     <g transform="translate(163.26058878 258.833370471)scale(0.09 -0.09)">
      <use xlink:href="#BitstreamVeraSans-Roman-70"/>
      <use x="63.4765625" xlink:href="#BitstreamVeraSans-Roman-61"/>
      <use x="124.755859375" xlink:href="#BitstreamVeraSans-Roman-6c"/>
      <use x="152.5390625" xlink:href="#BitstreamVeraSans-Roman-6d"/>
      <use x="249.951171875" xlink:href="#BitstreamVeraSans-Roman-69"/>
      <use x="277.734375" xlink:href="#BitstreamVeraSans-Roman-74"/>
      <use x="316.943359375" xlink:href="#BitstreamVeraSans-Roman-61"/>
      <use x="378.22265625" xlink:href="#BitstreamVeraSans-Roman-74"/>
      <use x="417.431640625" xlink:href="#BitstreamVeraSans-Roman-65"/>
      <use x="478.955078125" xlink:href="#BitstreamVeraSans-Roman-5b"/>
      <use x="517.96875" xlink:href="#BitstreamVeraSans-Roman-73"/>
      <use x="570.068359375" xlink:href="#BitstreamVeraSans-Roman-5d"/>
     </g>
    </g>
   </g>
   <g id="text_18">
    <g clip-path="url(#pc915e621bb)">
     <!-- 25-hydroxyvitamin D2[m] -->
     <defs>
      <path d="
M2.98438 54.6875
L12.5 54.6875
L29.5938 8.79688
L46.6875 54.6875
L56.2031 54.6875
L35.6875 0
L23.4844 0
z
" id="BitstreamVeraSans-Roman-76"/>
      <path d="
M19.6719 64.7969
L19.6719 8.10938
L31.5938 8.10938
Q46.6875 8.10938 53.6875 14.9375
Q60.6875 21.7812 60.6875 36.5312
Q60.6875 51.1719 53.6875 57.9844
Q46.6875 64.7969 31.5938 64.7969
z

M9.8125 72.9062
L30.0781 72.9062
Q51.2656 72.9062 61.1719 64.0938
Q71.0938 55.2812 71.0938 36.5312
Q71.0938 17.6719 61.125 8.82812
Q51.1719 0 30.0781 0
L9.8125 0
z
" id="BitstreamVeraSans-Roman-44"/>
     </defs>
     <g transform="translate(224.056164542 92.6376061804)scale(0.09 -0.09)">
      <use xlink:href="#BitstreamVeraSans-Roman-32"/>
      <use x="63.623046875" xlink:href="#BitstreamVeraSans-Roman-35"/>
      <use x="127.24609375" xlink:href="#BitstreamVeraSans-Roman-2d"/>
      <use x="163.330078125" xlink:href="#BitstreamVeraSans-Roman-68"/>
      <use x="226.708984375" xlink:href="#BitstreamVeraSans-Roman-79"/>
      <use x="285.888671875" xlink:href="#BitstreamVeraSans-Roman-64"/>
      <use x="349.365234375" xlink:href="#BitstreamVeraSans-Roman-72"/>
      <use x="388.228515625" xlink:href="#BitstreamVeraSans-Roman-6f"/>
      <use x="446.28515625" xlink:href="#BitstreamVeraSans-Roman-78"/>
      <use x="505.46484375" xlink:href="#BitstreamVeraSans-Roman-79"/>
      <use x="564.64453125" xlink:href="#BitstreamVeraSans-Roman-76"/>
      <use x="623.82421875" xlink:href="#BitstreamVeraSans-Roman-69"/>
      <use x="651.607421875" xlink:href="#BitstreamVeraSans-Roman-74"/>
      <use x="690.81640625" xlink:href="#BitstreamVeraSans-Roman-61"/>
      <use x="752.095703125" xlink:href="#BitstreamVeraSans-Roman-6d"/>
      <use x="849.5078125" xlink:href="#BitstreamVeraSans-Roman-69"/>
      <use x="877.291015625" xlink:href="#BitstreamVeraSans-Roman-6e"/>
      <use x="940.669921875" xlink:href="#BitstreamVeraSans-Roman-20"/>
      <use x="972.45703125" xlink:href="#BitstreamVeraSans-Roman-44"/>
      <use x="1049.45898438" xlink:href="#BitstreamVeraSans-Roman-32"/>
      <use x="1113.08203125" xlink:href="#BitstreamVeraSans-Roman-5b"/>
      <use x="1152.09570312" xlink:href="#BitstreamVeraSans-Roman-6d"/>
      <use x="1249.5078125" xlink:href="#BitstreamVeraSans-Roman-5d"/>
     </g>
    </g>
   </g>
   <g id="text_19">
    <g clip-path="url(#pc915e621bb)">
     <!-- nLc6Cer[c] -->
     <defs>
      <path d="
M33.0156 40.375
Q26.375 40.375 22.4844 35.8281
Q18.6094 31.2969 18.6094 23.3906
Q18.6094 15.5312 22.4844 10.9531
Q26.375 6.39062 33.0156 6.39062
Q39.6562 6.39062 43.5312 10.9531
Q47.4062 15.5312 47.4062 23.3906
Q47.4062 31.2969 43.5312 35.8281
Q39.6562 40.375 33.0156 40.375
M52.5938 71.2969
L52.5938 62.3125
Q48.875 64.0625 45.0938 64.9844
Q41.3125 65.9219 37.5938 65.9219
Q27.8281 65.9219 22.6719 59.3281
Q17.5312 52.7344 16.7969 39.4062
Q19.6719 43.6562 24.0156 45.9219
Q28.375 48.1875 33.5938 48.1875
Q44.5781 48.1875 50.9531 41.5156
Q57.3281 34.8594 57.3281 23.3906
Q57.3281 12.1562 50.6875 5.35938
Q44.0469 -1.42188 33.0156 -1.42188
Q20.3594 -1.42188 13.6719 8.26562
Q6.98438 17.9688 6.98438 36.375
Q6.98438 53.6562 15.1875 63.9375
Q23.3906 74.2188 37.2031 74.2188
Q40.9219 74.2188 44.7031 73.4844
Q48.4844 72.75 52.5938 71.2969" id="BitstreamVeraSans-Roman-36"/>
     </defs>
     <g transform="translate(37.1660825893 156.3567551)scale(0.09 -0.09)">
      <use xlink:href="#BitstreamVeraSans-Roman-6e"/>
      <use x="63.37890625" xlink:href="#BitstreamVeraSans-Roman-4c"/>
      <use x="119.091796875" xlink:href="#BitstreamVeraSans-Roman-63"/>
      <use x="174.072265625" xlink:href="#BitstreamVeraSans-Roman-36"/>
      <use x="237.6953125" xlink:href="#BitstreamVeraSans-Roman-43"/>
      <use x="307.51953125" xlink:href="#BitstreamVeraSans-Roman-65"/>
      <use x="369.04296875" xlink:href="#BitstreamVeraSans-Roman-72"/>
      <use x="410.15625" xlink:href="#BitstreamVeraSans-Roman-5b"/>
      <use x="449.169921875" xlink:href="#BitstreamVeraSans-Roman-63"/>
      <use x="504.150390625" xlink:href="#BitstreamVeraSans-Roman-5d"/>
     </g>
    </g>
   </g>
   <g id="text_20">
    <g clip-path="url(#pc915e621bb)">
     <!-- nLc5Cer[c] -->
     <g transform="translate(43.4734077234 190.20428124)scale(0.09 -0.09)">
      <use xlink:href="#BitstreamVeraSans-Roman-6e"/>
      <use x="63.37890625" xlink:href="#BitstreamVeraSans-Roman-4c"/>
      <use x="119.091796875" xlink:href="#BitstreamVeraSans-Roman-63"/>
      <use x="174.072265625" xlink:href="#BitstreamVeraSans-Roman-35"/>
      <use x="237.6953125" xlink:href="#BitstreamVeraSans-Roman-43"/>
      <use x="307.51953125" xlink:href="#BitstreamVeraSans-Roman-65"/>
      <use x="369.04296875" xlink:href="#BitstreamVeraSans-Roman-72"/>
      <use x="410.15625" xlink:href="#BitstreamVeraSans-Roman-5b"/>
      <use x="449.169921875" xlink:href="#BitstreamVeraSans-Roman-63"/>
      <use x="504.150390625" xlink:href="#BitstreamVeraSans-Roman-5d"/>
     </g>
    </g>
   </g>
   <g id="text_21">
    <g clip-path="url(#pc915e621bb)">
     <!-- butyrate[s] -->
     <g transform="translate(313.003396411 225.016074226)scale(0.09 -0.09)">
      <use xlink:href="#BitstreamVeraSans-Roman-62"/>
      <use x="63.4765625" xlink:href="#BitstreamVeraSans-Roman-75"/>
      <use x="126.85546875" xlink:href="#BitstreamVeraSans-Roman-74"/>
      <use x="166.064453125" xlink:href="#BitstreamVeraSans-Roman-79"/>
      <use x="225.244140625" xlink:href="#BitstreamVeraSans-Roman-72"/>
      <use x="266.357421875" xlink:href="#BitstreamVeraSans-Roman-61"/>
      <use x="327.63671875" xlink:href="#BitstreamVeraSans-Roman-74"/>
      <use x="366.845703125" xlink:href="#BitstreamVeraSans-Roman-65"/>
      <use x="428.369140625" xlink:href="#BitstreamVeraSans-Roman-5b"/>
      <use x="467.3828125" xlink:href="#BitstreamVeraSans-Roman-73"/>
      <use x="519.482421875" xlink:href="#BitstreamVeraSans-Roman-5d"/>
     </g>
    </g>
   </g>
   <g id="text_22">
    <g clip-path="url(#pc915e621bb)">
     <!-- AIR[c] -->
     <defs>
      <path d="
M44.3906 34.1875
Q47.5625 33.1094 50.5625 29.5938
Q53.5625 26.0781 56.5938 19.9219
L66.6094 0
L56 0
L46.6875 18.7031
Q43.0625 26.0312 39.6719 28.4219
Q36.2812 30.8125 30.4219 30.8125
L19.6719 30.8125
L19.6719 0
L9.8125 0
L9.8125 72.9062
L32.0781 72.9062
Q44.5781 72.9062 50.7344 67.6719
Q56.8906 62.4531 56.8906 51.9062
Q56.8906 45.0156 53.6875 40.4688
Q50.4844 35.9375 44.3906 34.1875
M19.6719 64.7969
L19.6719 38.9219
L32.0781 38.9219
Q39.2031 38.9219 42.8438 42.2188
Q46.4844 45.5156 46.4844 51.9062
Q46.4844 58.2969 42.8438 61.5469
Q39.2031 64.7969 32.0781 64.7969
z
" id="BitstreamVeraSans-Roman-52"/>
      <path d="
M9.8125 72.9062
L19.6719 72.9062
L19.6719 0
L9.8125 0
z
" id="BitstreamVeraSans-Roman-49"/>
     </defs>
     <g transform="translate(224.404036852 277.112008929)scale(0.09 -0.09)">
      <use xlink:href="#BitstreamVeraSans-Roman-41"/>
      <use x="68.408203125" xlink:href="#BitstreamVeraSans-Roman-49"/>
      <use x="97.900390625" xlink:href="#BitstreamVeraSans-Roman-52"/>
      <use x="167.3828125" xlink:href="#BitstreamVeraSans-Roman-5b"/>
      <use x="206.396484375" xlink:href="#BitstreamVeraSans-Roman-63"/>
      <use x="261.376953125" xlink:href="#BitstreamVeraSans-Roman-5d"/>
     </g>
    </g>
   </g>
  </g>
 </g>
 <defs>
  <clipPath id="pc915e621bb">
   <rect height="320.4" width="425.7" x="0.0" y="0.0"/>
  </clipPath>
 </defs>
</svg>
